<mxfile host="Electron" agent="Mozilla/5.0 (Windows NT 10.0; Win64; x64) AppleWebKit/537.36 (KHTML, like Gecko) draw.io/26.0.16 Chrome/132.0.6834.196 Electron/34.2.0 Safari/537.36" version="26.0.16" pages="3">
  <diagram name="Data_Model" id="sN88BWxqLaFVea_d8RtI">
    <mxGraphModel dx="1870" dy="496" grid="1" gridSize="10" guides="1" tooltips="1" connect="1" arrows="1" fold="1" page="1" pageScale="1" pageWidth="850" pageHeight="1100" math="0" shadow="0">
      <root>
        <mxCell id="0" />
        <mxCell id="1" parent="0" />
        <mxCell id="9J1t4tTqPz8eWtxgcLao-1" value="Dim_Client" style="swimlane;fontStyle=0;childLayout=stackLayout;horizontal=1;startSize=30;horizontalStack=0;resizeParent=1;resizeParentMax=0;resizeLast=0;collapsible=1;marginBottom=0;whiteSpace=wrap;html=1;" parent="1" vertex="1">
          <mxGeometry x="-30" y="120" width="190" height="160" as="geometry" />
        </mxCell>
        <mxCell id="9J1t4tTqPz8eWtxgcLao-2" value="&lt;li data-end=&quot;1383&quot; data-start=&quot;1365&quot;&gt;&lt;code data-end=&quot;1378&quot; data-start=&quot;1367&quot;&gt;client_id&lt;/code&gt; (PK)&lt;/li&gt;&lt;br/&gt;&lt;li data-end=&quot;1395&quot; data-start=&quot;1387&quot;&gt;&lt;code data-end=&quot;1395&quot; data-start=&quot;1389&quot;&gt;name&lt;/code&gt;&lt;/li&gt;&lt;br/&gt;&lt;li data-end=&quot;1406&quot; data-start=&quot;1399&quot;&gt;&lt;code data-end=&quot;1406&quot; data-start=&quot;1401&quot;&gt;age&lt;/code&gt;&lt;/li&gt;&lt;br/&gt;&lt;li data-end=&quot;1421&quot; data-start=&quot;1410&quot;&gt;&lt;code data-end=&quot;1421&quot; data-start=&quot;1412&quot;&gt;country&lt;/code&gt;&lt;/li&gt;" style="text;strokeColor=none;fillColor=none;align=left;verticalAlign=middle;spacingLeft=4;spacingRight=4;overflow=hidden;points=[[0,0.5],[1,0.5]];portConstraint=eastwest;rotatable=0;whiteSpace=wrap;html=1;" parent="9J1t4tTqPz8eWtxgcLao-1" vertex="1">
          <mxGeometry y="30" width="190" height="130" as="geometry" />
        </mxCell>
        <mxCell id="9J1t4tTqPz8eWtxgcLao-17" value="&lt;strong data-end=&quot;553&quot; data-start=&quot;541&quot;&gt;Dim_Date&lt;/strong&gt;" style="swimlane;fontStyle=0;childLayout=stackLayout;horizontal=1;startSize=30;horizontalStack=0;resizeParent=1;resizeParentMax=0;resizeLast=0;collapsible=1;marginBottom=0;whiteSpace=wrap;html=1;" parent="1" vertex="1">
          <mxGeometry x="660" y="90" width="220" height="180" as="geometry" />
        </mxCell>
        <mxCell id="9J1t4tTqPz8eWtxgcLao-18" value="&lt;li data-end=&quot;603&quot; data-start=&quot;587&quot;&gt;&lt;code data-end=&quot;598&quot; data-start=&quot;589&quot;&gt;date_id&lt;/code&gt; (PK)&lt;/li&gt;&lt;br/&gt;&lt;li data-end=&quot;633&quot; data-start=&quot;607&quot;&gt;&lt;code data-end=&quot;620&quot; data-start=&quot;609&quot;&gt;full_date&lt;/code&gt; (YYYY-MM-DD)&lt;/li&gt;&lt;br/&gt;&lt;li data-end=&quot;645&quot; data-start=&quot;637&quot;&gt;&lt;code data-end=&quot;645&quot; data-start=&quot;639&quot;&gt;year&lt;/code&gt;&lt;/li&gt;&lt;br/&gt;&lt;li data-end=&quot;658&quot; data-start=&quot;649&quot;&gt;&lt;code data-end=&quot;658&quot; data-start=&quot;651&quot;&gt;month&lt;/code&gt;&lt;/li&gt;&lt;br/&gt;&lt;li data-end=&quot;669&quot; data-start=&quot;662&quot;&gt;&lt;code data-end=&quot;669&quot; data-start=&quot;664&quot;&gt;day&lt;/code&gt;&lt;/li&gt;&lt;br/&gt;&lt;li data-end=&quot;684&quot; data-start=&quot;673&quot;&gt;&lt;code data-end=&quot;684&quot; data-start=&quot;675&quot;&gt;weekday&lt;/code&gt;&lt;/li&gt;" style="text;strokeColor=none;fillColor=none;align=left;verticalAlign=middle;spacingLeft=4;spacingRight=4;overflow=hidden;points=[[0,0.5],[1,0.5]];portConstraint=eastwest;rotatable=0;whiteSpace=wrap;html=1;" parent="9J1t4tTqPz8eWtxgcLao-17" vertex="1">
          <mxGeometry y="30" width="220" height="150" as="geometry" />
        </mxCell>
        <mxCell id="9J1t4tTqPz8eWtxgcLao-21" value="&lt;strong data-end=&quot;708&quot; data-start=&quot;689&quot;&gt;Dim_Risk_Factor&lt;/strong&gt;" style="swimlane;fontStyle=0;childLayout=stackLayout;horizontal=1;startSize=30;horizontalStack=0;resizeParent=1;resizeParentMax=0;resizeLast=0;collapsible=1;marginBottom=0;whiteSpace=wrap;html=1;" parent="1" vertex="1">
          <mxGeometry x="660" y="380" width="290" height="230" as="geometry" />
        </mxCell>
        <mxCell id="9J1t4tTqPz8eWtxgcLao-22" value="&lt;li data-end=&quot;767&quot; data-start=&quot;744&quot;&gt;&lt;code data-end=&quot;762&quot; data-start=&quot;746&quot;&gt;risk_factor_id&lt;/code&gt; (PK)&lt;/li&gt;&lt;br/&gt;&lt;li data-end=&quot;786&quot; data-start=&quot;771&quot;&gt;&lt;code data-end=&quot;786&quot; data-start=&quot;773&quot;&gt;factor_name&lt;/code&gt;&lt;/li&gt;&lt;br/&gt;&lt;li data-end=&quot;812&quot; data-start=&quot;790&quot;&gt;&lt;code data-end=&quot;812&quot; data-start=&quot;792&quot;&gt;factor_description&lt;/code&gt;&lt;/li&gt;" style="text;strokeColor=none;fillColor=none;align=left;verticalAlign=middle;spacingLeft=4;spacingRight=4;overflow=hidden;points=[[0,0.5],[1,0.5]];portConstraint=eastwest;rotatable=0;whiteSpace=wrap;html=1;" parent="9J1t4tTqPz8eWtxgcLao-21" vertex="1">
          <mxGeometry y="30" width="290" height="200" as="geometry" />
        </mxCell>
        <mxCell id="9J1t4tTqPz8eWtxgcLao-25" value="&lt;strong data-end=&quot;899&quot; data-start=&quot;878&quot;&gt;Fact_Transactions&lt;/strong&gt;" style="swimlane;fontStyle=0;childLayout=stackLayout;horizontal=1;startSize=30;horizontalStack=0;resizeParent=1;resizeParentMax=0;resizeLast=0;collapsible=1;marginBottom=0;whiteSpace=wrap;html=1;" parent="1" vertex="1">
          <mxGeometry x="270" y="110" width="220" height="200" as="geometry" />
        </mxCell>
        <mxCell id="9J1t4tTqPz8eWtxgcLao-26" value="&lt;li data-end=&quot;958&quot; data-start=&quot;935&quot;&gt;&lt;code data-end=&quot;953&quot; data-start=&quot;937&quot;&gt;transaction_id&lt;/code&gt; (PK)&lt;/li&gt;&lt;br/&gt;&lt;li data-end=&quot;993&quot; data-start=&quot;962&quot;&gt;&lt;code data-end=&quot;975&quot; data-start=&quot;964&quot;&gt;client_id&lt;/code&gt; (FK → Dim_Client)&lt;/li&gt;&lt;br/&gt;&lt;li data-end=&quot;1024&quot; data-start=&quot;997&quot;&gt;&lt;code data-end=&quot;1008&quot; data-start=&quot;999&quot;&gt;date_id&lt;/code&gt; (FK → Dim_Date)&lt;/li&gt;&lt;br/&gt;&lt;li data-end=&quot;1050&quot; data-start=&quot;1028&quot;&gt;&lt;code data-end=&quot;1050&quot; data-start=&quot;1030&quot;&gt;transaction_amount&lt;/code&gt;&lt;/li&gt;&lt;br/&gt;&lt;li data-end=&quot;1074&quot; data-start=&quot;1054&quot;&gt;&lt;code data-end=&quot;1074&quot; data-start=&quot;1056&quot;&gt;transaction_type&lt;/code&gt;&lt;/li&gt;&lt;br/&gt;&lt;li data-end=&quot;1088&quot; data-start=&quot;1078&quot;&gt;&lt;code data-end=&quot;1088&quot; data-start=&quot;1080&quot;&gt;status&lt;/code&gt;&lt;/li&gt;" style="text;strokeColor=none;fillColor=none;align=left;verticalAlign=middle;spacingLeft=4;spacingRight=4;overflow=hidden;points=[[0,0.5],[1,0.5]];portConstraint=eastwest;rotatable=0;whiteSpace=wrap;html=1;" parent="9J1t4tTqPz8eWtxgcLao-25" vertex="1">
          <mxGeometry y="30" width="220" height="170" as="geometry" />
        </mxCell>
        <mxCell id="9J1t4tTqPz8eWtxgcLao-29" value="&lt;strong data-end=&quot;1113&quot; data-start=&quot;1093&quot;&gt;Fact_Risk_Events&lt;/strong&gt;" style="swimlane;fontStyle=0;childLayout=stackLayout;horizontal=1;startSize=30;horizontalStack=0;resizeParent=1;resizeParentMax=0;resizeLast=0;collapsible=1;marginBottom=0;whiteSpace=wrap;html=1;" parent="1" vertex="1">
          <mxGeometry x="220" y="350" width="350" height="260" as="geometry" />
        </mxCell>
        <mxCell id="9J1t4tTqPz8eWtxgcLao-30" value="&lt;li data-end=&quot;1170&quot; data-start=&quot;1148&quot;&gt;&lt;code data-end=&quot;1165&quot; data-start=&quot;1150&quot;&gt;risk_event_id&lt;/code&gt; (PK)&lt;/li&gt;&lt;br/&gt;&lt;li data-end=&quot;1205&quot; data-start=&quot;1174&quot;&gt;&lt;code data-end=&quot;1187&quot; data-start=&quot;1176&quot;&gt;client_id&lt;/code&gt; (FK → Dim_Client)&lt;/li&gt;&lt;br/&gt;&lt;li data-end=&quot;1262&quot; data-start=&quot;1209&quot;&gt;&lt;code data-end=&quot;1227&quot; data-start=&quot;1211&quot;&gt;transaction_id&lt;/code&gt; (FK → Fact_Transactions, nullable)&lt;/li&gt;&lt;br/&gt;&lt;li data-end=&quot;1293&quot; data-start=&quot;1266&quot;&gt;&lt;code data-end=&quot;1277&quot; data-start=&quot;1268&quot;&gt;date_id&lt;/code&gt; (FK → Dim_Date)&lt;/li&gt;&lt;br/&gt;&lt;li data-end=&quot;1311&quot; data-start=&quot;1297&quot;&gt;&lt;code data-end=&quot;1311&quot; data-start=&quot;1299&quot;&gt;risk_score&lt;/code&gt;&lt;/li&gt;&lt;br/&gt;&lt;li data-end=&quot;1333&quot; data-start=&quot;1315&quot;&gt;&lt;code data-end=&quot;1333&quot; data-start=&quot;1317&quot;&gt;trigger_reason&lt;/code&gt;&lt;/li&gt;&lt;br/&gt;&lt;li data-end=&quot;1378&quot; data-start=&quot;1337&quot;&gt;&lt;code data-end=&quot;1355&quot; data-start=&quot;1339&quot;&gt;risk_factor_id&lt;/code&gt; (FK → Dim_Risk_Factor)&lt;/li&gt;" style="text;strokeColor=none;fillColor=none;align=left;verticalAlign=middle;spacingLeft=4;spacingRight=4;overflow=hidden;points=[[0,0.5],[1,0.5]];portConstraint=eastwest;rotatable=0;whiteSpace=wrap;html=1;" parent="9J1t4tTqPz8eWtxgcLao-29" vertex="1">
          <mxGeometry y="30" width="350" height="230" as="geometry" />
        </mxCell>
        <mxCell id="9J1t4tTqPz8eWtxgcLao-33" value="" style="endArrow=classic;html=1;rounded=0;exitX=0.979;exitY=0.123;exitDx=0;exitDy=0;exitPerimeter=0;entryX=-0.005;entryY=0.253;entryDx=0;entryDy=0;entryPerimeter=0;" parent="1" source="9J1t4tTqPz8eWtxgcLao-2" target="9J1t4tTqPz8eWtxgcLao-26" edge="1">
          <mxGeometry width="50" height="50" relative="1" as="geometry">
            <mxPoint x="400" y="420" as="sourcePoint" />
            <mxPoint x="450" y="370" as="targetPoint" />
          </mxGeometry>
        </mxCell>
        <mxCell id="9J1t4tTqPz8eWtxgcLao-34" value="1:N relationship" style="text;html=1;align=center;verticalAlign=middle;whiteSpace=wrap;rounded=0;" parent="1" vertex="1">
          <mxGeometry x="150" y="150" width="120" height="30" as="geometry" />
        </mxCell>
        <mxCell id="9J1t4tTqPz8eWtxgcLao-35" value="" style="endArrow=classic;html=1;rounded=0;entryX=0.982;entryY=0.382;entryDx=0;entryDy=0;entryPerimeter=0;exitX=-0.014;exitY=0.113;exitDx=0;exitDy=0;exitPerimeter=0;" parent="1" source="9J1t4tTqPz8eWtxgcLao-18" target="9J1t4tTqPz8eWtxgcLao-26" edge="1">
          <mxGeometry width="50" height="50" relative="1" as="geometry">
            <mxPoint x="400" y="420" as="sourcePoint" />
            <mxPoint x="450" y="370" as="targetPoint" />
          </mxGeometry>
        </mxCell>
        <mxCell id="9J1t4tTqPz8eWtxgcLao-36" value="" style="endArrow=classic;html=1;rounded=0;entryX=1;entryY=0.5;entryDx=0;entryDy=0;exitX=0.009;exitY=0.053;exitDx=0;exitDy=0;exitPerimeter=0;" parent="1" source="9J1t4tTqPz8eWtxgcLao-18" target="9J1t4tTqPz8eWtxgcLao-30" edge="1">
          <mxGeometry width="50" height="50" relative="1" as="geometry">
            <mxPoint x="650" y="140" as="sourcePoint" />
            <mxPoint x="450" y="370" as="targetPoint" />
          </mxGeometry>
        </mxCell>
        <mxCell id="9J1t4tTqPz8eWtxgcLao-37" value="1:N relationship" style="text;html=1;align=center;verticalAlign=middle;whiteSpace=wrap;rounded=0;" parent="1" vertex="1">
          <mxGeometry x="510" y="130" width="120" height="30" as="geometry" />
        </mxCell>
        <mxCell id="9J1t4tTqPz8eWtxgcLao-38" value="1:N relationship" style="text;html=1;align=center;verticalAlign=middle;whiteSpace=wrap;rounded=0;" parent="1" vertex="1">
          <mxGeometry x="520" y="240" width="120" height="30" as="geometry" />
        </mxCell>
        <mxCell id="9J1t4tTqPz8eWtxgcLao-40" value="" style="endArrow=classic;html=1;rounded=0;entryX=1;entryY=0.891;entryDx=0;entryDy=0;exitX=-0.003;exitY=0.33;exitDx=0;exitDy=0;exitPerimeter=0;entryPerimeter=0;" parent="1" source="9J1t4tTqPz8eWtxgcLao-22" target="9J1t4tTqPz8eWtxgcLao-30" edge="1">
          <mxGeometry width="50" height="50" relative="1" as="geometry">
            <mxPoint x="672" y="138" as="sourcePoint" />
            <mxPoint x="580" y="505" as="targetPoint" />
          </mxGeometry>
        </mxCell>
        <mxCell id="9J1t4tTqPz8eWtxgcLao-41" value="1:N relationship" style="text;html=1;align=center;verticalAlign=middle;whiteSpace=wrap;rounded=0;" parent="1" vertex="1">
          <mxGeometry x="560" y="580" width="120" height="30" as="geometry" />
        </mxCell>
      </root>
    </mxGraphModel>
  </diagram>
  <diagram id="z8ka9sg2lCb0RvSZLXnP" name="DataFlow_Architecture">
    <mxGraphModel dx="1020" dy="496" grid="1" gridSize="10" guides="1" tooltips="1" connect="1" arrows="1" fold="1" page="1" pageScale="1" pageWidth="850" pageHeight="1100" math="0" shadow="0">
      <root>
        <mxCell id="0" />
        <mxCell id="1" parent="0" />
        <mxCell id="Ynr_X1k0Tl3vXlIKimH--8" style="edgeStyle=orthogonalEdgeStyle;rounded=0;orthogonalLoop=1;jettySize=auto;html=1;exitX=1;exitY=0.5;exitDx=0;exitDy=0;" edge="1" parent="1" source="Ynr_X1k0Tl3vXlIKimH--2" target="Ynr_X1k0Tl3vXlIKimH--3">
          <mxGeometry relative="1" as="geometry" />
        </mxCell>
        <mxCell id="Ynr_X1k0Tl3vXlIKimH--2" value="Data Sources" style="rounded=1;whiteSpace=wrap;html=1;" vertex="1" parent="1">
          <mxGeometry x="50" y="140" width="120" height="60" as="geometry" />
        </mxCell>
        <mxCell id="Ynr_X1k0Tl3vXlIKimH--9" style="edgeStyle=orthogonalEdgeStyle;rounded=0;orthogonalLoop=1;jettySize=auto;html=1;exitX=1;exitY=0.5;exitDx=0;exitDy=0;" edge="1" parent="1" source="Ynr_X1k0Tl3vXlIKimH--3" target="Ynr_X1k0Tl3vXlIKimH--4">
          <mxGeometry relative="1" as="geometry" />
        </mxCell>
        <mxCell id="Ynr_X1k0Tl3vXlIKimH--3" value="Ingestion" style="rounded=1;whiteSpace=wrap;html=1;" vertex="1" parent="1">
          <mxGeometry x="190" y="140" width="120" height="60" as="geometry" />
        </mxCell>
        <mxCell id="Ynr_X1k0Tl3vXlIKimH--10" style="edgeStyle=orthogonalEdgeStyle;rounded=0;orthogonalLoop=1;jettySize=auto;html=1;exitX=1;exitY=0.5;exitDx=0;exitDy=0;" edge="1" parent="1" source="Ynr_X1k0Tl3vXlIKimH--4" target="Ynr_X1k0Tl3vXlIKimH--5">
          <mxGeometry relative="1" as="geometry" />
        </mxCell>
        <mxCell id="Ynr_X1k0Tl3vXlIKimH--4" value="Processing" style="rounded=1;whiteSpace=wrap;html=1;" vertex="1" parent="1">
          <mxGeometry x="350" y="140" width="120" height="60" as="geometry" />
        </mxCell>
        <mxCell id="Ynr_X1k0Tl3vXlIKimH--11" style="edgeStyle=orthogonalEdgeStyle;rounded=0;orthogonalLoop=1;jettySize=auto;html=1;exitX=1;exitY=0.5;exitDx=0;exitDy=0;" edge="1" parent="1" source="Ynr_X1k0Tl3vXlIKimH--5" target="Ynr_X1k0Tl3vXlIKimH--6">
          <mxGeometry relative="1" as="geometry" />
        </mxCell>
        <mxCell id="Ynr_X1k0Tl3vXlIKimH--5" value="Storage" style="rounded=1;whiteSpace=wrap;html=1;" vertex="1" parent="1">
          <mxGeometry x="500" y="140" width="120" height="60" as="geometry" />
        </mxCell>
        <mxCell id="Ynr_X1k0Tl3vXlIKimH--6" value="Data Analysis/ BI Reporting" style="rounded=1;whiteSpace=wrap;html=1;" vertex="1" parent="1">
          <mxGeometry x="650" y="140" width="120" height="60" as="geometry" />
        </mxCell>
        <mxCell id="Ynr_X1k0Tl3vXlIKimH--12" value=".csv files in ADLS" style="text;html=1;align=center;verticalAlign=middle;whiteSpace=wrap;rounded=0;" vertex="1" parent="1">
          <mxGeometry x="80" y="210" width="60" height="30" as="geometry" />
        </mxCell>
        <mxCell id="Ynr_X1k0Tl3vXlIKimH--13" value="Azure Data Factory" style="text;html=1;align=center;verticalAlign=middle;whiteSpace=wrap;rounded=0;" vertex="1" parent="1">
          <mxGeometry x="190" y="210" width="110" height="30" as="geometry" />
        </mxCell>
        <mxCell id="Ynr_X1k0Tl3vXlIKimH--14" value="Azure Databricks" style="text;html=1;align=center;verticalAlign=middle;whiteSpace=wrap;rounded=0;" vertex="1" parent="1">
          <mxGeometry x="360" y="210" width="110" height="30" as="geometry" />
        </mxCell>
        <mxCell id="Ynr_X1k0Tl3vXlIKimH--15" value="Delta Lake, ADLS" style="text;html=1;align=center;verticalAlign=middle;whiteSpace=wrap;rounded=0;" vertex="1" parent="1">
          <mxGeometry x="520" y="210" width="110" height="30" as="geometry" />
        </mxCell>
        <mxCell id="Ynr_X1k0Tl3vXlIKimH--16" value="Azure Synapse/ Power BI" style="text;html=1;align=center;verticalAlign=middle;whiteSpace=wrap;rounded=0;" vertex="1" parent="1">
          <mxGeometry x="660" y="210" width="110" height="30" as="geometry" />
        </mxCell>
      </root>
    </mxGraphModel>
  </diagram>
  <diagram id="jLkM9dzZp3g82JGhM_Nk" name="Databricks_Pipelin">
    <mxGraphModel dx="1020" dy="496" grid="1" gridSize="10" guides="1" tooltips="1" connect="1" arrows="1" fold="1" page="1" pageScale="1" pageWidth="850" pageHeight="1100" math="0" shadow="0">
      <root>
        <mxCell id="0" />
        <mxCell id="1" parent="0" />
        <mxCell id="4nV9bqFxuvPaOm7GeDRl-6" style="edgeStyle=orthogonalEdgeStyle;rounded=0;orthogonalLoop=1;jettySize=auto;html=1;exitX=1;exitY=0.5;exitDx=0;exitDy=0;" edge="1" parent="1" source="4nV9bqFxuvPaOm7GeDRl-1" target="4nV9bqFxuvPaOm7GeDRl-2">
          <mxGeometry relative="1" as="geometry" />
        </mxCell>
        <mxCell id="4nV9bqFxuvPaOm7GeDRl-1" value="VIsual Studio Code - Developer Write Code" style="rounded=1;whiteSpace=wrap;html=1;" vertex="1" parent="1">
          <mxGeometry x="60" y="200" width="120" height="60" as="geometry" />
        </mxCell>
        <mxCell id="4nV9bqFxuvPaOm7GeDRl-7" style="edgeStyle=orthogonalEdgeStyle;rounded=0;orthogonalLoop=1;jettySize=auto;html=1;exitX=1;exitY=0.5;exitDx=0;exitDy=0;entryX=0;entryY=0.5;entryDx=0;entryDy=0;" edge="1" parent="1" source="4nV9bqFxuvPaOm7GeDRl-2" target="4nV9bqFxuvPaOm7GeDRl-3">
          <mxGeometry relative="1" as="geometry" />
        </mxCell>
        <mxCell id="4nV9bqFxuvPaOm7GeDRl-2" value="Git Repository" style="rounded=1;whiteSpace=wrap;html=1;" vertex="1" parent="1">
          <mxGeometry x="230" y="200" width="120" height="60" as="geometry" />
        </mxCell>
        <mxCell id="4nV9bqFxuvPaOm7GeDRl-8" style="edgeStyle=orthogonalEdgeStyle;rounded=0;orthogonalLoop=1;jettySize=auto;html=1;exitX=1;exitY=0.5;exitDx=0;exitDy=0;entryX=0;entryY=0.5;entryDx=0;entryDy=0;" edge="1" parent="1" source="4nV9bqFxuvPaOm7GeDRl-3" target="4nV9bqFxuvPaOm7GeDRl-4">
          <mxGeometry relative="1" as="geometry" />
        </mxCell>
        <mxCell id="4nV9bqFxuvPaOm7GeDRl-3" value="Azure DevOps / Databricks CLI / Terraform" style="rounded=1;whiteSpace=wrap;html=1;" vertex="1" parent="1">
          <mxGeometry x="400" y="200" width="120" height="60" as="geometry" />
        </mxCell>
        <mxCell id="4nV9bqFxuvPaOm7GeDRl-4" value="Azure Monitor for Logging events and trigger alerts" style="rounded=1;whiteSpace=wrap;html=1;" vertex="1" parent="1">
          <mxGeometry x="580" y="200" width="120" height="60" as="geometry" />
        </mxCell>
        <mxCell id="4nV9bqFxuvPaOm7GeDRl-9" value="" style="shape=image;verticalLabelPosition=bottom;labelBackgroundColor=default;verticalAlign=top;aspect=fixed;imageAspect=0;image=data:image/png,iVBORw0KGgoAAAANSUhEUgAAAUcAAALsCAYAAABwenXbAAAAAXNSR0IArs4c6QAAAARnQU1BAACxjwv8YQUAAAAJcEhZcwAAFiUAABYlAUlSJPAAAMn8SURBVHhe7N0JXFTl/j/wT7IKw+bI4iCCbC4oi4gShIIp4m5104pWvXo1/6nl5bZ4NbNr3aIs7Wd6La00y6VU3CUXFCEUEcEQBUGQQFCRRXbE/s9ZgJnhAAOiMvp9v14D5zznzDlnBuYz3+ecM3Mes7Gx+QsiuVyOwsJCcYwQQh5dXcTfhBBClFA4EkKIBApHQgiRQOFICCESKBwJIUQChSMhhEigcCSEEAl0niMhRPsY+2HKi+7oJo62qOQCtmyOQpE4qikKR0KI1vFbuBHvPW4hjrWuKGEN5r6/p00BSeFICNE6gYu24J9DC7Bj/FysE9vUCfPcxOmTMgweatHmgKR9joSQh1gtcj6chZUni2DhzX4vCoaxOKU1FI6EkIdcOSI//AjrkllADp2LNRoGZKfpVi/5aQ8Gm3JD5Tj9+VQsOco3N5j+1R481ZsbEqbnPF0/nildWgctwZYFg/knofzkZ5j6YVSTdk5mxHjMxUrsmeQotqi5vAPj31intH6ByjLrqS0bpafx2QtLEIVA9vj+KT4+dcrb39J89c+L6jxS29G4rc08N4RoOc271crz9MP0Lz7CUy56KDq5ErM+jGSvquZ1msoxKrV+M43R74lAcbjedHjUB1NpKqLUglNzLFhmqAXjN+JIGxn3C2RLUxX4RL/GYNSYI57aswVLgsTRNjIeOrvd9yXk4WcBx3/Mwiz+Nhx6F2KQyaLGYuh4PCfO0Zw2hqMxPLw92hgAxvAb7tfqfaJOpDakuLGVkzgkmuHBIkRQnhrFKrH2CVw0u7EqYxWhVDBygTl+vNKNVY0qSsuF7TTth0CVUGJh2Y97lGx6qdAiiasmxWV/drLxDWHw09PFYZHSfMKtaTUtYPedsaRJUBNCOBbwmMBePw23QDhqGGBtCkfrGZ9h2QdL8PE/NA1IYwSHrURY2DwsmWIttjXj6BJEXhaHe3uwWrFRoE39fcuReqKd0ci6vLOHilvNBY966LWZWoUbFIh+fPAWoEDDPRNRrKzPFIcht2t/wJkOxuxFFI+EKIv6cKpScdF4ayxKWtamcCz45j2sSSiD4wRNAlIIxtnDu+HmsXVYsrVAbG/euuT6qHCExwxxsKEiY9rdpXZS6k6X4/Q33H7A9kpFqhjiyl3rhi715SQk8S33AQv50/XbMvRplTcUQoi0jLi92LP7aKuv0zZ2q4uw5/25GgSkcjCuxtzwlnd8NvgmqaGScnQXX+oNFdlddKn7BTd0pzMjmuueChwn7cGePY23lQ0h3SiqPsQbutaNAZ6ZnAE7OT/YqsBFwQ27C1CYo/rYWDX4T6Xt2POTdNc56o0d4nPmiKe+ongkpDU5v23Amv/twGlxvDntOCDDBSR33lBzAWkMvzc+a3sw8tYhqb5rLXYzGw9yZCJS/eiwhoxNG7fQkXWv77oD2hDiYte6IcAzkdTaAR6l0PtnfTef3W9Hu7v56zA3Qgzr3k9JhjkhpO3aEY4c7rwhqYAUgjFstE07glHQ0LUWqzInKzFAWHe1vfHBne6yoz50W9k/p35ARvpodmOIc13r6Upd6jZvI3eqkNTpCOoHZPhTgprxzdyGx+c4aSU8hEFCiAS7US9j1j+ewmBxvDntDEeOGJC/1wfkYAz+x8d8MOYfDG9XMPJUqrIlDafwZCbf3QGUdQ3dT7bkof+86wqrMcS7wUMMcI22UT307vrAkKDx8TnCUel8TEKIKiffcRg/IajVIuIuwpHDAnJZY0AumWDHB+M/v4ptXzDylKuyfhCOU2vQXW2VUveT4Sqsu9pD9812nOZP2akPo47Yxruh+vgIIXfnLsORIwTkRxv2YM+Guw1GQWNVZqxBd5U7iVrpwAW7bWmu26zU/eTvJ3EAQ/2ATHMHQsA6uY0nrjN30e2XpH5Aht1arXZVHh8h5G50QDhyyhG7dQ3WbL37YOQpHbXm3G2XWply95o7gLHnLo7wKp+43pHbeDfWbT/dMX8DQh5x9JVlhBCto8lnqwXTsXLPU6yf2Dr17ymgcCSEaB0hHGuQtDsGOWJbowKcbjiPcTz++UUwevHDAr3udrCzqEFBeoFKL+sm6/0t+a7x1HAKR0KI1jEetQRr5g2G9HeBt/xtVJpWnRSOhJBHiqbh2EEHZAgh5OFC4UgIIRKoW00IIRKociSEEAkUjoQQIoHCkRBCJFA4EkKIBApHQgiRQOFICCESKBwJIUQChSMhhEigcCSEEAkUjoQQIoHCkRBCJFA4EkKIBPriifuhjxPc5o7FwJ4y6CADRydtRZ44iRDSOVHleM/J4frPKfDsCVw5HomTZ/9ErTiFENJ5UTjea/6ecLYCSk9tReznCbj0fiyui5MIIZ0XheO91tMMMvarJL9AGCeEaIUHG459B2OwXBzWVN9ABPYVh7WBzAB64iAhRHs8wAMywVjy01wMrjuNNfOXYI8mq+37MsI/mIJ+ZVH4aPpniBWbW6cL2ayx8PPvg26mutBhLXW1hbi8ZytOfl8szGJsDps5YzDIuycsDHX5prqqQuQlHMbvn2Yo7Se0htvGafAs3IdN66rgNitYPNAC1Bal4MTnu5B3jpvPA8MixsKOG1R2md1vfuPlHwkhnZOOTCZbIg7DyMgIlZWV4ti9loH4dFN4jw7EqBGuKD0ehbSWVl0fjEjF1mUfYM8Nsb1VMth9+TpG+/RAl7JU/HHkLC6nZaAQVrDokomsmHIWjLZw++rv8OtjjtrcRJw98QeupBWg2toBjn084Op7C2kHCnBHXJ7V016w+UsPFqMHwexKPP44nYa8Chl69O4Np6Gm+PPXdFShGhUmRSioNoedtRGun4tEUnwGcv64jOKLVfySCCGd1wMMR1ZpFZzG8VQNAlI5GN8Pw4YLYrsGui54FSGeJig6tQG7/nkaN85cRTG73TiUKAQjY/qvFzHc5THk7FqN3z5KxU1+nmzkRfyObKeB6DegHwy6xCKXrwjFcOzeFaX71iJqeQa/vJtRibg2wAtOPRV47C82b0oVKrjl9HaFOwvdmye3IulbNk7BSIhWeOAHZMqT12DuuzuQKRuMWV8uwXj1fZB9n8Kyhe0LRq4L7OjJFlgYi6PLcsU2dQ5wdjdn8yQgfl2Z2Nao9MtY5LBuubO3m9giKv0DZ9Xmv34ul3W/dWFgKjYQQrRW5zhafWGddEDywTgdHvrtCUaODeQsqCrzstF8PWwGmWEL85Tno7CU/Zbb8EedGxQWgGtWUVDGL8PMyloYJ4Rorc5zKk99QBqKAekyHku4YEQS1rUrGBvV1dBp14SQtulc5zlyAblIDMgvZmEwF4zLFmJHu4OxCtUsF2V2zugqtjRVgrIqoKvCXnoeY6H6rL32J5p2ugkhD6vOFY4cPiDXYMfuHVhzV8HIuYjMCyzSrLzhM12lU6wkC5e5eeTS85jO94MdqpGdcFFsIYQ8Ch7o0epm3UhDYkIi0jQ+Xad5FSdzcWeEN/p4DoWDnxHu9DSHmXdv2IaOwgDPPP6IdVW81DyucPl/z8DPRYaiUz8havUtcYni0erKdJw7oPapFwcn9HlcAeSybY8WjoRj0ED+aHXpxRPIThSaCCGdX+erHDtaeS5SFqxHbCoLMoU3ho4Pht94f/SRVyL3gngCODfPnLU4ejZXaR4/9O5yFWd/WYt9zR7pJoQ8rOgrywghRMLDXzkSQkg7UDgSQogECkdCCJFA4UgIIRIoHAkhRAKFIyGESKBwJIQQCRSOhBAiodOEY2BgoDhECCEPHlWOhBAigcKREEIkUDgSQogECkdCCJFA4UgIIRIoHAkhRAKFIyGESNCqcLRw1seUmTLMmmmAwWJbI108xU8zQrCz2EQIIe2kNeFo95oN1n3hhJcm2GHcBAu4i+2NDBDIT7PHG1+4YMVrj4ntHcd04WyERsyG2/06X32IH57c/i6e/twNOmITIeT+0JJw7IIpT1hAjxssuoaNnxRgB9+urBwrvrqCC0XcVR904fiEKTyECdrLSI9FPiHkQdCScNSBzFAYKkgowtYTf6FIGFWRGVmOlfGlwohhF1gIQ9or6hj2Pf0xti9IQZ3YRAi5P7TugIzMtOUOZk9Tvr4ElybVwhAhhLSZloRjLQrEUlHfsOV9iTasK8orrsHvwhAhhLRZp7k0K/etPFFRUeJYU9NW9sNTvdnApSuY8KZ4wXwJ077oi6ecWYBeZvPNbX6+Fsmt0TtsHNxdrSHjCtW6YuRE7cc5kzEYOwQ4+8VqpChtqt5Tw/H4pCFQWOjyB05qi7JwLmI3UneUsTEHDPrpefRDEva9sK/J7gCLD97AWM9qnFm2FqmnxMYGHhgWMRZmp9Zj97ICsU0Gy39NgI93T1gY6vIttUUXceLL7cg7y4/yuv5tOHzGe7NtMhAO5tRVo+jPBMSvOobrF/lZeNxBpglDinH8hf2onT8RQ71t+cdcV1uIjIitiN8oXtubkEdM568c7fXw0jwrBHLBiL+Qk1bBNzfntzRxn2Pv7gifZ4xge2FUY8a2cPt8Gvz6maMyLRaxeyIRG5MLQ//nMcpLJs7USG/683jqVT/Y3LmIJG7ePbHI1mGB+OpMDJ3KzZGF1LPsDce4L3pP5O+ixAG9+7Jl/nkWaU2CUZrNpzMR7N8D1RdihG07noJi/e6wMBdnYEzfnYlJL/lBoXMV5w5z2xSJM2llMLT3Q/Cy52HXR5yxQVf0XsYes90NpOxn8x9OwnXI4fq3lzBojDgLIY+Yzh+OjjKMGymHBW6j4FgmFq5uKHQl5azOw1fHbrGOuBH6juyOxx3FCRoyZdWTp0U1cnatReQ7x3D5mwRc/nwXIl/fhWwIlVoDew88PsYByI7Ejmm7kMrN+80xnJy1ASmlBnAeOZzFDlAZeZGFDRt/Qi2Vpg6CsyHb5jOnNDzg4gbHPgZsfcdw+P3Yxm2bsR4X4sVZAoMx3FeOO5f34deXfkbKSm6bEpD6zlpsZ8NFeg54fLqbOHM9a9jgMHbP2odL3DJX7sPhDUkoY1Wqc1CTJCXkkdD5wzGzDHuPFaGcBZP1cHu895zY3gzj56wxa7gJ9FCBpE25WK9hRSawhWNfVoIVsu7nOq5LrKQwBanJqm064z1gp1eNS4cSWBgrKc9FZjqb10qB7tz42Tik/8mqTEc3KIz5OXgKbyfo1V7Epc1iQ6vKUcXtKVC4ovdAoYVXfht14h4Ey5EDYIpCnPspSXWbOKyKPHeZbUcfth1ik6AMabvV5t+VgXzWoGfYtFom5FHQ+cMxuxYbP8vHlmTupasLJ28job0Z47zNhfMhL9/AvzffRk6bdjt2h6kpq/TyslEptqiouy0OCIzNuaQzQL/p7yI0QvU2wZsLFXOY8ieMV+PymSyWNE6wm8SNM8YecO6ji7KUM8jTeBuzcG5PCkq7OMDvP+/i6W8mwnmiucoJ4oYyVllW/YkbzbwplFzn9iGyStxfGBfcQOFhcbBBMcq4J8FCzsKWkEePlhyt1lxtjdhB7fIYlIq0NqmraVJztaAQadx+On5/o/rtOHJYpcbbnIxLtbqw9xS6tDovsaqTu+9eFpptUPvTLuyesRqHYzJQZuyGodNn49n1T8K0vQ+WECJJa8LRwkQ4RaemtOXgKqoSp1vowUcYaoMqVLO7yxS2kh/XM+jK7UFsVFvFBbEMdXnCfr2mN1blZQvzojwFmReqWZfWHXbGBujtadumAzEqCouR/+lWRL4QjoioXNyRD8Hw+db8pKqyalY+9kT3IfxoE2aW5mzDC1AYIzYQQiRpSTjqwkY8GltW2vKhi4zitlR96i4i70/2q4c3Bj4ptDQY6IcBA1U/zFcZfRFF3IGWkd5CV74V12MuoIw7Qj3LF4492nIgpp4udOTiIO82ytamIJ8NdTUTniBhHXIMfMGj6TY9GYyBvVk2Zgr3IYQ0T0cmky0Rh2FkZITKSsm9bfecg4MDsrKa62LegduTlnBlr38DwxoU5dbgJnt1V4lT6zl66eNvY63hYPIYUFKKfbuqUX92oKZKqwxg97gTeg31goWTLrr0tUL3MYHwf8EBlTm3YWZ+B/lxp3Gd29TcbBQ4DUQ/Nzf0HWeHv+wMIHNXwOKJgXB5ORgDPHKQcUJph+Klm+gS7A0nZyuY3MnAmf+k4lZDlhtA8fk8TJw1ELcLEnCDfypsYP+8CwxzE5EWzS1nIAI2TUEfr66407s7LLx7w/HVJ+BkUoW0iH24yp2/eCkdV7ltGjBQZZt6TJmAYeOdYFKUgH3/OsVXyByDYT7oY1uF7M1/QDwJSiSD1dNebAuuIm1HBn3aiDxytKZbvTehiD+aqqdQ4I2l1nhKaFZijHlLnRCo4B5SLTJPlCJJmNA2UYex7+NIpF0DFEOGw298MAa5sMzZuBFnC1QPyHBKl32DiP0puKnTE56sMuPmHzpsACzrMvDHUfVoLkTWhULo6Rm08UBMvXzk/FkNmasfvx6/8f5wMPwTJ9d8hzO7xFmY0mWrEfFLEntj6MkqYGGbPJyBG6d2IWJOJErbvF5CHj1a8wkZjsVwI0x70hS9TCoR+WYJ9ortAu77HA1hXVuLpN+q8TvXPdZ6Up+QIYTcD1p1tLroWAU+X5yPeU2CkXMbO9aWYc13D0swMoHWMGO/qquoU0vI/aZV4fio6TrEAaYoRm4Cfb6ZkPuNwrGTUfxnGgbN9YbzB9Mwxl+O2kvHcaHlvQ2EkHuAwrGTqa0zhuuTwRg6UI6qS5HYt5i+6JaQB0GrDsgQQsj9QpUjIYRIoHAkhBAJFI6EECKBwpEQQiRQOBJCiAQKR0IIkUDhSAghEigcCSFEAoUjIYRIoHAkhBAJFI6EECJBq8LRwlkfU2bKMGumAQaLbY24L7vlphkh2FlsIoSQdtKacLR7zQbrvnDCSxPsMG6CBdzF9kYGCOSn2eONL1yw4rXHxPZOKDAYE7hrWy8Urhgopeub0/BcxFsY+qrqRb0IIfeHloRjF0x5wkK4ml7RNWz8pAA7+HZl5Vjx1RVcKOK+ZEgXjk+YwkOYoJX09HTFIULIg6Al4agDmaEwVJBQhK0n/kKRMKoiM7IcK+PFa+gZdoGFMKSVSj9di82TluPk93SJBEIeBK07ICMzlbrcfqOepuLVmutAlxMlhLSbloRjLQrEUlHfsOV9iTZGYjgW1+B3YYgQQtpMa74JfNrKfniqNxu4dAUT3mz+wsvTvuiLp5xZgF5m881txwWapz+P0InmOPvFamS7TIRfUB9YGuuySvQ2iv48hfhVx3Cdu3g+zxpuG6fBs3Afth6zxhPPekNhDOTs+hjH13HTdSGbNRZ+w8Rl4DZKs2NwYr8MT8zyBlq65KrSdqTUPy3GcvReNAkDnK0hFMi3UXbtFI7PONa4m8HYHDZzxmCQd09YGAr7LeuqCpGXcBi/f5rBX/tb0Ljtm9ZVwW1WMAb2lIGry2uLUnDi813IOyfMScijqPNXjvZ6eGmeFQK5YMRfyEmr4Jub81uauM+xd3eEzzNGsL0w2lZG/s8jeKQNihKOIHZPJM6klUBm74fgd4NhygJQhelQDJugi9SPP8amSfXByJoXzsCkMW6QVV3EGbaM2D2nkC/zxejpA9BVmKUN5HD9cib8XA1w7XduWZE4eepP3JFbQybOAWNbuH01G0/6O0CnIAkn+XXGIqNcBjv/KXjqSw/hoJYyw/4Y9u9xsLmRwM9/8iwLaws3BL07Vqv32RJytzp/ODrKMG6knL1Qb6PgWCYWrm4odCXlrM7DV8dusQrJCH1HdsfjjuKENjGHa99CHJq2FvGfJ+DyNwlIfWctdkTmsuDwhu8sc3E+kRzIW7MP+cqVVmAwhg8xR+3lfdg9bRdS2TIuf3MM8dNW4ngmmoZUa/w94WwFlJ3dhZPiNl1a9jN2z9iOPHEW0/kT4SmvZpXrV9g9NxKXGta5HLtPFUOvdzAGvSDOXK9HDyByLQ6/Hyss8/31OHqujAWtG1ynivMQ8gjq/OGYWYa9x4pQzrqo1sPt8d5zYnszjJ+zxqzhJix8KpC0KRfrT4kT2igv7hhK1XrltatO4hLrl1raO4ktotIs5Kqtx5R1pU1RiHM/JSl1ZTm3kXfwD7D4aZs/b6GS/ZI5usGChXGDwtvi1Qkd4OzOQrswAfHrmi699MtY5LDn0NnbTWwRlf6Bs2rzXz+Xy7ZZFwamYgMhj6DOH47Ztdj4WT62JHMRowsnbyOhvRnjvM2FquzyDfx7823ktGO3I6vPUHRB6lh3Mcq4hGLppJIbRYUQO/MNzLqxzm7Vn7ghFc4sze6IgxrLPoWE4wWoZJXr2PVhmLAyGHZPKp8gbsaf7lSZl82HaBPl+SjkNlJu09gN5xQWNNl2FJTxyzCzav4kdUIedlpytFpztTXiVZ67PAb1XYOau43ali4WXVWtWg3euS0OqKm53aGnE5V+vh7b52xALLdfsKc3hs19C09/LrEfkRBy17QmHC1MhAioKVXtpKorqhKnW+jBRxhqB3PI1XrOPHt7WLGSsbYoX7o6U1LLghGmNrCSOiBkqtv+QPszF5ff34DdL63G4XPF6Oo8Fo9P5yaUoKwK6Kqwlz7YY2wDObft1/5se5eekEeQloSjLmzEYyBlpS2VdEBGccvhqSk7Hz90VSs9LWcMhYLVgtkJDefyNCv/4p/spy36vWIrNNQzNofzWI+2H6021oWO8vaUFyP/aAYfdIbm3JOThcsX2JjcGz7TVTrOPNP5frDTcNsJIVoTjrdxU9wx1q2/CYK9HpM8zcTRSx9TBpgII1V3JD9iqJlqFBn6YtKaKeg3wxu9Z/hh0Jq3EDxQhtrLh3FmizhbS9YdwVm2AabeL2PSymA4c8uZG4xha2bAtSpLrXqzhtv37yJ0yxSwwk+azwiM3jgbwxb6se3htmk4hr7qDRlykbmnmJ+l6NPtbJ0GsJv4Br9Pkl8nm89n/VuYMMQcRae24KQm204I0Z5u9d6EIn4/n55CgTeWWuMpoVmJMeYtdUKggntItcg8UYokYUI7VCJ743ocz5Sh35hg+I0fDtfuZciJ2Yod89WPPjenAClz1iI2Vdg/OHR8MIYOcwDObcdvOwvbfkDmcjbyClkF7T2cbQ/bpjFDYFWahKMfb8Cl+mKwPJdf59GzuYBCWKffeBamXa7i7C9rsW8ZayeEaERrPiHDsRhuhGlPmqKXSSUi3yzBXrFdwH2foyGsa2uR9Fs1fud6te0h9cmUB6GzbAchjyitqRw5Rccq8PnifMxrEoyc29ixtgxrvruLYOxETPmdrHWoFXrMhJD7TKvC8dEhh60TC8fSLOSfFZsIIfcVhWOn4YZBa8bCmT/48woGyatx+fCxpidoE0LuCwrHTqOK9aU9MFQ8+HNpzw+IpS+6JeSB0aoDMoQQcr9Q5UgIIRIoHAkhRAKFIyGESGiyz/GvLi1fwOpecXfrj+SU8+IYIYQ8WFQ5EkKIBApHQgiRQOFICCESKBwJIUQChSMhhEigcCSEEAkUjoQQIkGrwtHMQQcTX9DHyy/owENsa9QFY/hpehjuIDYRQkg7aU04KqYY4/PF5nhmpAmeHGmIfmJ7Ix08zk8zxbTFFlg65TGxvXOSv/MSxqx9Br0fFxsIIZ2KloTjY5joYyhczrSkAr+ursB+vl1ZLdZ9X4pLJdwHfrrA3kcf/YUJnZA+uuiKg4SQTklrwtHIQBi6fq4Ku+L/QokwqiL7OAvIpBphxOAxmAlDbWQCy39OxvD3pC5c3RpN71uD6//ZiP0zf8Xl38UmQkinonUHZIxNWu4u95CJD6mOi6D20IdpTzmMdNvzGfO7uS8hpDPRknC8gxtiqain33I4WnUVg6mkDgnCECGEtJnWfCvPc0vkGNOLDWSV4pWlzV85+rnF3TDGgQXoFTbfEs2uMF3P+I0pGOZhIo41KvhtnXAh/0H94TbVAwoLI+hybyt3KlB05hji1uS1fl81wvy3cObv+1EgtrW0/AYWcij+EQBnezmM+Z2wwO2yQuSdjELKz8qXKnTFoG8DIEvaiZiT1ug31QcKM13o4DYqrv6BxOUJKC0SZyWENKEjk8mWiMMwMjJicflgiklrK0sUXL8ujimx7YJnnu2KgIF6MMRfyEuswOFkcZqEm710MLK3LmDWBQPld/DYtTvIviVObMUdvSqU3SzGY7Y2kN3KQFLsRRRc/hPXU66jqoc3fP+fDyzv5OPSifPIvXwNpYbd0MPwJjKOF7Z832viCpToD3WDvU0Nru66hHKuwaPl5fMcXeHx79FwsdJF+eVzSEu8jIKrt6BjYw/bvv1hbZ+LnFP80hg5eky0h0GdKRTD7VB97iyyL/yJ4i6W6GFnh14Da3H56DX2jBJCpHT+cBxogLmTjWDCutbXT5bio/V30NJlp24l16DIRhcDeurDslcXdMmsxu854sRW/JVThFt/1MAouC/kJSlIXHWBjQvhZvRMAPr2qMPlTRHI2HedteejKCoFWedK8FfVnRbvK0U9HFtbPrc/0/qNMXCVlyPtu59x7uer/PJvnf0TVw9cxC3PPnDoo0BddiqK+VJUCEcLUyD7+624uJNb5nUUH89Ete9AWNnIUHUpFSUSTzkhRBv2OWbX4NDJKlSwTbUcaoq5E8X2ZhhNNMZLQ/Whh1qc31mGzR103efq0kr20wiWgxWsa9qorui2OHR3Wl2+rSvseunidmYCMmKEpkYVrPvOhaw5FP7mYpso9w+1+StwLYvrfuvD0EJoIYQ01fnDMfcOfv1fOXalctVTF9iz7nVLRrJKk5/jSiU+2XUHeRV8812r234SKddqYDpwDILXTsGgN1xh3EOc2AFaXX4vExadQNGfzZTBvxeijP0y7SYXxkXlNxr2aDaoLuGeFCPIegrjhJCmOn84tlFtjbgXTecxPkw6TMU1XHlvIyK/+x2XWd509wjAsA9fgsfUDlrLvV4+IaRNtCYczYyFTa0tq+N/N6e4Rpxu1kXi89d3ry7mPC4s2orIzw7jSpk+FKOGw7oD86vZ5V+5xTrEgEVPO36+Jh6XQ8Z+FV1rZicnIaRNtCQcu8BK/LhL+a2Wj69ml3Dd7w5gZqFaeVqofd7vQhayLgvdUwP1L7pQv68mWlt+bhryrgK6jt5w8ufnUGIE61HOMEYx8k5qeGieENIiLQnHOyjmdqgx5i76GO4m/dFAezcdTOyjL4xUS3/EsHWFKLvJfpm5ov/r/aF47Uk4PQsYv/g0gj8fA6fXWNvz7DYzGN5uLAKvXURew+mZ0vfF40Ph/+10jPi3k8rBFmWtL78Ged9Fo6DWBK6vvQTfd7yF+V57HIO+fB6DenHnVO7HlSR+cYSQu6Q13epD56rAndKtZy3DtAVGGCM0K9HD9AXmeNya+wTNHWTH16C9F3ot+DEKV0q6wHLQ4/B43Ap65UBVVg5KdaxY1cbannwcA7zkqLgQhWP/+QPKx6ul7qsJjZafmYYz4bvxR1YFjBw9+fk8/F1hUp2BP378FWe2dNDRJ0KIdl232myoHp5/Qh8K49s4trQah8V2Afd9jrqwvF2HlOg6JLAuaGcm+QkZQkinQRf1f0CsF0/HoB5ZODX7MOuME0I6G63pVj9UjJxgyZ3DeDWHgpGQTorC8X553BuD/s0dRPHGgI8CYad3C2m/pYkTCSGdDYXj/VJSjS69uIMonlB0uYa0bXuQQV90S0inRfscCSFEAlWOhBAigcKREEIkUDgSQoiEJvscCwvp5BJCCKHKkRBCJFA4EkKIBApHQgiRQOFICCESKBwJIUQChSMhhEigcCSEEAkUjoQQIuGRDsfQsJk4tXkmVgWIDYQQIqLKkRBCJFA4ttcoX+xc8wq+oKqTkIcShWN79bCHwtwA4oVgCSEPmQcbjn0HY7BcHNZU30AE9hWHCSHkHnmA38oTjCU/zcXgutNYM38J9miy2r4vI/yDKehXFoWPpn+GWLG5Vd2ssHTeGDzhbAUZ90XndSXIij6A/SYhmO0NxK9aiznRwqwN8zqyefW4hjqU5SUjYvUhrEjnxt2xdfNoOHCDym4lYsWMQ9jEBkMmB2BaiBccWGXJqy1E1uEIzP++EHlCCyGkk9ORyWRLxGEYGRmhsrJSHLvXMhCfbgrv0YEYNcIVpcejkNbSquuDEanYuuwD7LkhtrfGyBarPn0Jw3vq4lb6aRw/fQGXrgO9hwTBt4cedHRqkBefgH1XhNkXLnkd4x1uIy8pHnHJ6cipMEVvZ2d4DdJHxZ4snEMVusuKUFBtBmcrHWTFRSHuj0xcSs9G7B+3kBcwEmun+cC8Ig1xx5Jw/tI16Nq5wqFff/ganMW2c3XCigghndoDDEdWUBWwsErVICCVg/H9MGy4ILZrIHT+83ja8TFk7VuHySsu4ejZfBw9lY5Nx4sxYkwfyHWqVcJxmIcJEv63Ff/c/Sc/76HoJJj0Gwz3XnLo3IjHvqxqnOaW4eCKGS66SI/Yi7BdbJwLRm4B9lYIKDuM15cm4RduvrNXsO38HTw9whEKo1vY+1s+bvFrIoR0Zg/8gEx58hrMfXcHMmWDMevLJRivvg+y71NYtrB9wQjYws/VDLiZiE0bysU20c3z2J+i1sYs+/yg2H1utCK7gP00hmUvYbxF0XH4+1q17nN6JjK5RDSXI0hoIYR0cp3jaPWFddIByQfjdHjotycYOXJYmgA1V7MRIbaoqLstDigxMkDo0wH49qNnsHPNXJz4/i2cGqtJKjZy9XTE0rBx2Br+Co58z5ax6RX4sO0ghGiPznMqT31AGooB6TIeS7hgRBLWtSsYG9XUarifz8UdW7+ei3lTfOBooouagvOIiTqKiLPXxBlaF7pgGn585xmEuFtDv7YMmQnROPJbNLKoL02IVulc5zlyAblIDMgvZmEwF4zLFmJHu4OxkgUjILNRsGU1ZWpoKA4JQif7wsGwBPFrlmPEG1sw5f1DePv7RHyXXyXO0Qojd0zyYWVvziG8+dJ6TH7vV/z9q0Qs/j4H18VZCCHaoXOFI4cPyDXYsXsH1txVMHLSkcrt/LPxwmuBQks9hZsvRruJp9qIHCzM2M8SFJ4SxgXGmOfZXLfaTHU/pHs3dGe/ygqvIUZo4SnGDoAHdasJ0SoP9Gh1s26kITEhEWmanq7TguhqfTw/xBG9B3tiXG8d9He1RMio4XjjWXvcyq2DudmdhqPVlQ4OGOdkh14BFhhoKYO/pwtmz5mIXneKYGRshOL0WGxLEhds2oMttwesrK3g3L0rnhrrAIufr8CcBaGdnWPjusaOxoJhZrhVaQQj5OPk7kycExdBCOm8Ol/l2NGio/Di54eQxvq1Cu8AhISMhL8TkLR5EyKuqR6QOb0uApsSclFj1h/+bL6QUf2AhF8wL77pUW1EH8K6GDaviQuC2Lw+3etQiCtYvPoQsooNG9fVIx8R4QeRKd6NEKId6LrVhBAi4eGvHAkhpB0oHAkhRAKFIyGESKBwJIQQCRSOhBAigcKREEIkUDgSQogECkdCCJHQacLRxIQ+fEwI6TyociSEEAkUjoQQIoHCkRBCJFA4EkKIBApHQgiRQOFICCESKBwJIURCp/myW+48x1u3ml6ir9f/6wkfW3GkPXJv4Nf/0/ACWYQQIuo015AxMDBATU2NONbI/m9O8OltDAuLdt5Qgtjfmi73rkx/HqFLAnAn/zSuZwlNNv99C5NeH4jbBQm4IbZpjSF+ePKrF+E1pAhpkdfR8G7ZIg8Mi5gGd6d0pEVLXEaCEC1H3eoOYYAueuKgNjLSY4+AEKJMi8LxL9RV1aBa+VYr1ji1au1VtUL7fVONvAXLsenptUiNEpvuGQe4rpqJ4H9Zi+MdIOoY9j39MbYvSEGd2PRQGOOHoO+noZ/aZXnvqQexTnJPaFE43sChV1KwUvkWKVy79UqkWvsr2bjCT3kYmcGmpxwG2lyp3i8KeygsWFUvjt4XD2Kd5J7Qor+hJUZv8UKY8m2cJT+l1zi19i3OaO4y/IQQoolOf7Ta/VMvjLbnhm7h/IFryONbRXZWGOlmgsKUDCTmiG28rvAKUUDODWZfQvi/mi63ZbqQzRoLP/8+6GaqCx3WUldbiMt7tuLk98XCAZmJ5jj7xWqkiN1o04WzMWFIMY5P+hnKm6L31HA8PmkIqyaE5dQWZeFcxG6k7igTZmAa7vvCftTOn4ih3raQsZm5dWZEbEX8RrZOxu7LdzGsNz+opFhlO5pnDbeN0+BZuA9bj1njiWe9oTAGcnZ9jOPruIMrY2F2aj12LysQ55fB8l8T4OPdExaGunxLbdFFnPhyO/LOcmPS97H7cia/jfnHt+Dw57lieyuMzWEzZwwGKa2rrqoQeQmH8funGWjYSRIYjAlveqOE32axTaT6/AvbZidOa1CagN0vRaJU6e+X7TIRfkF9YGnM1lt3G0V/nkL8qmO4flG8j+TjFKn8H7SyTnFUnc4wbwx6yQ+95TLocf8g3DZcisTRfyWBOzQq/P+wvxWrRvnJDf+H5hj00/PohyTse2EfiriFKbH44A2M9azGmWVrkXpKbCRtQtV/E9wLfC4mjXGDrPYikvZEIpbdki7dhpFV2w5b6LEXz1Ov+sHmTv1yYpGt44BBr87E0KniTA26oveyafCzu4GU/Wzew0m4zuLd9W8vYdAYYY4bR7hlpLB2oDI7lt+u2D3HkXNZmK4R06EYNkEXqR9/jE2TmoZMPZtPZyLYvweqL8QI6zmegmL97rAwF2dogoXpf15iwWiAori2BKMt3L6ajSf9HaBTkIST4vOUUc7+Dv5T8NSXHmj7HoRspHLLOce90VcjJ4ZbJrtFpkD5uLqR//MIHmmDooQj/PQzaSWQ2fsh+N1gmLI3jrbRbJ3KuP+PZxYEw9W0Gpfr54+5iNvszYJ/zFOf5v9/ulddwGluGve8FBlAbsv9H2Yh9Sxbl3Ff9J7IzazMAb37yoA/zyKNgrHdtCgcTdA/xAkjlW+sauTI3dTa66vGdui64AXhBX5qA7ZP24XUbxJwmd1S31mPo5+qVQ4tsffA42Mc2GsmEjsalnMMJ2dtQEqpAZxHDmdxqMwaNjiM3bP24RI378p9OLwhCWUsdJxZZcOp3MUtIxvcWZu1BRf47br8TQpKs/nJmmFPTN6afcg/J45LcoNjH/YCzD6Gw+/HCuv5fBciZ6zHhXhxFjWmC19C8EBz/nnb97GGwciYskrZU87CZNdX2D03Unjs7HmKn7Ycu08VQ693MAa9IM6ssWJc55ZzmesxVKLwFLdMdtuYq3TAyRyufQtxaNpaxH8uTE99Zy12RLJtt/CG76xm3wWaock6lQwZjqCJDtArYpWl0jbwz/OcY3ylqRjSh4VkFhIXiP8T3PMy4yscXCP8H1ZGXmRvlOx/6Qnh/6PB1EFwNmS9gjOnHq4DbPeZFoXjTUQvS8Za5VvUTX5KbpRa+7JsaP7yVGYNR0+WHoWxOLqsfUuopzPeA3Z61bh0KKGxW8gpz0VmOutSWynQXWwSlCFtd5LqvLsykM8a9AxZFdBRSrOQ22o1UY4qrtxRuKL3QKGFV34bdU3KIF3I5ryMkCEsGBN+xsE2PW8OcHZnIVSYgPh1jbsZ6pV+Gcu6yLpw9nYTWzpWXhwLIbXHU7vqJC6x59zS3klsuTdMR/WHJQpx5mvW5W6mtKws456THrB7QTWo6+r3fJ2NQ/qf7P/D0Y3fRVJP4e0EPdbrubRZbCDtokXhaIQ+z/fASOWbmxE/xdxNrf15C1YXtIcN5KbsnzIvm9/fczeMzbn/VgP0m/4uQiNUbxO8ubAzh6nK6R43UHhYHGxQjDJuQyzkYJvVMYoKm93/1SgL51j3vbSLA/z+8y6e/mYinCea8/u81Om5TMTYYFtUX9yF35ZmtbFSMYOMVTjNPt/l+SjkNlZuw+rnjlaGogvV4rCye/CcSzCzZP+hVX/iRgtvVEU/HUEa62XYjZ+N536aBp+5Tuiq0iVi3fEzWeyP4AS7SWKTsQec++iiLOUM8prrzxONaFE4GsLK0RKOyjdL9spijC3V2h1N0eZdRkrqalTqt7tQiDRu/yG/v0j91sZ9hR3lzm1xoGW1P+3C7hmrcTgmA2XGbhg6fTaeXf9kk31xdaUFKGRPl6xnH1iq9e46t9uobSnJq6pVq/h7oeY2i7cWXExB/Evh2P5TLK6UG8PpySnsjWom3J4Up3M2J7NKVxf2nkJ1rfMS67Fw/3d7te1jWp2PFoXjdRycmohw5dte7tAEcGWvWvvUS+08z7EK1dwL3c5ZbX9g29VWca88GeryxH1JTW5t3Ff4IBQWI//TrYh8IRwRUbm4Ix+C4fNVTz6/UxCDw6sTUGTcB0HvBnMFVxuUoKwK6Kqwl36+jYVKvvban6zOaySzaroSvhJrE3PIpXrO9vaw4tZZlK9SzZp2U90JwjG1aV//hFPLghGmDrDxFBuadRuVW44hdsZX2Pb5MeTdkcPz1eDGqrY8BZmsAtbr4w47YwP09rSlAzEdRIvCsTtG/uCGucq3YOEftlewWvsP9u08z/Ei+0fj9gd6w2f63XXkKqMvoojbWT7Sux1HW1sn9WLtOLrQUcmf2yhbm4J8NtTVTCIQDkfit10ZqLTwxtjP23KkNwuXuedbLv18m873Y1VQNbITxPNqLrMuL/tlYe+k+pz2GQLnJqc41TOHmYM4qMbOxw9d1bbVcsZQKJTXKQY4etjDUnleYwc4uzUXjs2vs17+iRT2WLiga/5ovI5cOK2pXt3xWGRx57J1lUHYoSS4HnOBLcsBvWf5wrEHHYjpKJ3+iyesR/WAM/8/+Bi66OpAV/mm8xg/D3TU2tmtQcnNNn3xRMVJViGN8EYfz6Fw8DPCnZ7sH927N2xDR2GAZx6yYsqBQQPh3scQ+XGNXzxhMMwHfWyrkL35D2GfXm42CpwGop+bG/qOs8NfdgaQuStg8cRAuLwcjAEeOcg4IewUanLfBjJYPe0FG1xF2o6Mhi6YbBxr62ENQ6u/YDDCC1a66ShstRclLqsyHecOqB91t4H98y4wzE0Uv0RiIAI2TUEfr66407s7LNjjd3z1CTiZVCEtYh+u8rmhep87iSm4ZGwHV8/+6DfCCNm/se3VoF9aFS/1fLvC5f89Az8XGYpO/YSo1eJ5qiU3UOMzCL3tXeAYaIraHqYwC/KB3ytuuH2tBiYmFarPoZkCDo8rYGNjhUpLI/SY1BvVUTmo5v9+XVF0uyc8JtqhrrshTLjHOPNZ+DoZofZyJI5+XoA7/EKKUe4yEH0cHeAwSiHMy/6G7q8Ho2tpAVunrsr/QXPrvP3qFDz7wUTY90pHOvc/dDEdV7n/jwEDVf4/uo8JwODnuuP6vmxYfvw2Rj7TjT3VMrZ9bNqkMfDsK0P1+d+QcEQ495V36Sa6BHvDydkKJncycOY/qbh1z/cJPPy0qHK8T8pzkbJgPWJTWYAovDF0fDD8xvujj7wSuReU/iE1ULrsG0TsT8FNnZ7wfJJbTjCGDhsAy7oM/HG0DacFqShAyvexyCs3hyu3TJ/uuNO2zdJAPnL+rIbM1Y/fZu7xOxj+iZNrvsOZXeIsEmrX/YwDcYWo4yrIr5run5TEPd9z1uLo2Vyl59sPvbtcxdlf1mKfytHvauQt/gGxlwqha+XBzzvU2xzZm75DQo7EvtSoSBw7notK0z78vAO731baj1iJ7I3rcTxThn5juHUOh2v3MuTEbMWO+apnDZR+vBGRp9hyjJ0wiNu+QCdUH2XbHC9RSLS4TlUN/x/oiYHi/8dgd3NUZWbz50aWXMhCFVsOv05uWl9d5B7egH3/Vn8nLETWhULo6RnQgZgORN/nSB49Ep9wIkRdpw9H0jodZ3Pot7SLtKwMlZc0O0rdYYwNoOfSFap7zZTdRk16mcR5k/cBhSPRAIXjQ0D6M9dKLu/DJtZVvK/Ez0E3f66gpp8JvwcoHIkGKBzJo4fCkWiADsgQQogEqhwJIUQCVY6EECKBwpEQQiRQOBJCiAQKR0IIkUDhSAghEigcCSFEAoUjIYRIoHAkhBAJFI6EECKBwpEQQiRQOBJCiAT6sltCCJHQ6cPR/VMvjLYXR9oj+xLC/9XBX2jx8lScGmuG+FVrMSdaaJr3wVyEOpchZs16vCm2EUK0F3WrO4QBZPfiEoOEkAdGi8LxL9RV1aBa+VYrFr21au1V9/vSa9VY9t5KDAm9H1VjL3yyfBr2z7cSxwkh94IWheMNHHolBSuVb5E3+ClXItXaX8lu50X9tYE5eivkMKBKlZB7ivY5tofEPsf7xx1bN49G94QfMCL8mthGCOloWhSOt3D+wDXk8a0iOyuMdDNBYUoGEnPENl5XeIUoIOcG2xWOOnh2egim+faB3ERHaKotRNqBX/HiphLJcAwNm4l53iWIeG4LlglNPP8JAZg3zgcO5sJyaoqvIH7vHry5u/Gyew33nXYAZXPGYZKnLWTc7Nw69/6Kf20u4R/3wk/CMKnJG0VJw3YI6/Ji6zIQJilvc3OMzDBvZoiwTkPxsVZcQ8zPP+DN37jpcix9ezyecLQS96vWoex6PDa+cQq9l89FiCIXB8J+wmKV5x8YPP0FfD3KBmnbl+PFrWIjIVqEDsg0YcxCaA7CRvWHSe1FxBw4hAPsFpNZB5mlGDoa8mch+kmoLxR36pcThzydXvAPnY4fnxZnamAIj/dfwbO2hYj/jc0blYxCFu+uk0OxdJQwxx/HuGWcZ+0sZHPi+O06cOAEYrMAxdOThXVVXcRRcV1pxYaQK1rYZiNbrFo+E6G+vYDryeL9ohFfaABLfpemHF98Mg0hzga4cYqbdghHE3KBblZQoBpr4tLZPLZwH6O+DgM8O9CWhWwKDlMwEi1F3Wo1k96YhoX+cpQl/IQXw3NVK9V6mlSOdqz7+9FoOOQfwpthiYjh52K4QFrxAnyq4rD4jWgcYE3Cfc1Qk30Qb7+d3DCvYuxobH3ZHfrpOzFkERdEHOlu9cKPWFXpeAUHpm3B4gqxkXHtBqTdFEfUzPtwLkJdgKx96zBlg8QFpH0DcWS+D3D2J4z4LwvFet104HqzDmlwwY8bJ8O1uPGx8NwDsP89XxhQ159oMS2qHG8ielky1irfooRXfS6rslTal2VD6aXcBlYIdmed8ZtxWNFcMGpo8JgBcNCrRvJRpWDkVOQiNoMFkaUC3mKToBxJ+xuDkZO3LxNZ3IF3Qxmr1FqWV8aFmzX6TjFTmbe5YISRO/xdWMWXfgjzpYKRk1uOUvZL5tAPr7GQbcAHIycdh1O5x+KC0UoPZtIIF1ZzFiLpCAUj0V5aFI5G6PN8D4xUvrkZ8VPM3dTan7eAOT+lrWxgacK6rFezESG2tFcfMxn7aQD3l8NwarPqbZ6nMZvGQiyAn1VUiLwm11AuQQn34R5zOYKEhmZ9ty0KabcM4BAyEzvXv4IfZzliknKgqfO2Qnf2Ky8no/k3gZx4bIu5hhpzL8z++i0cCR+JhYEGKuH7XXQaylgU9g3g9/Ay7A3GjQ3nncOmBLGJEC2kReFoCCtHSzgq3ywN+SnGlmrtjqbg4qe9amrrxKG7VYg0bv8hvy9P/SbsK+ww6efx4ozlWLY1DlnlxnANfAYLv5qGVYHi9ObUVIsD0jZ99QOmvPUTDiTns36+FybNmoutH7GqU5yO6EQksepU7tofk7jxUV7wMGGVZVw8TvMzEKKdtCgcr+Pg1ESEK9/2XuenXNmr1j71UjvPc6xkwci6kbaOCBFb2quw6jb7KUPV1UQs/l7qdh6b1I7w3r06RGyPxpQ3vsaLX0Uj744cPqEjESpOVVFSDS4WFU4uwngL8vJysfijnzBixlpsSimBvuNozHtZnMjeADad5Q7S9EMwq4Rn+/aBPh2IIQ8BLQrH7hj5gxvmKt+CuY4h0CtYrf0He/Tip7RVOmLSuH1oXpj28t3UnsCB2HQWG6xbHeTVWGV1IJmF8NjruXYTT8MRpcXEgSv2uP2VqnOKks8I012Cmq8ujXTgKuy5EFSUYEV0JutGAyZmZkIbc3p/Ouuam6GfbwD8XQ1QlpqI78RphGgrHZlMtkQchpGRESorK8Wx+8vAwAA1NTXiWCPrUT3gzO9AfAxddHWgq3zTeYyfBzpq7ezWoOQmYn9rutzmnD6dB8/hXnAb6IPnhxqhv60Zhnk64G9TnsTMgVexOY6Fp8cAzHAxRF58AvaJJaq7vzd8FdW4+EsK+APYV9mE3gPg27c/QkbbwdNWH74DeiDIdwCmvzASMwbkYNPvwoGQJvdtYIxxEz1hi3yc3J2Jc3zbXwgczdpsrDG8+x22rR4I0c2A87R/4uNJFhhoLYO/Zw+EjB2N4a7GqLtwCB8cL8GtgEAc+fRZzBhUjOTD11mY1eJQRhlGBbjBbehgPD1QH30c5AjydEHoyyGY0j0B242fxLalIzHOSQ8DXS35abPH+cDKIBcnvzmNQ/UHe0rzYOfhC68+1jDRK8GZTSdw8Ko4jRAtpUWV431SkYs57/2AAxevATZeCAoZiZAQP3h0q8LltBZOppawKXwdwn87j0IdW/gEcsthN//+UNRl4sjx9h7JvYZlm+KQV2EGV26Zg+TccRtkpV1BjUkf+PPbOxJBrjrIi/oJb394pfkDLunJmP/fnYjJKYOJs6+wfaN84KiXi9QUNj0rG5k3daHwDGiY1v1WMrZ9zpZbf2aRaNO5TEDPAPp0IIY8JOj7HAkhREKnD0dCCHkQqFtNCCESKBwJIUQChSMhhEigcCSEEAkUjoQQIoHCkRBCJFA4EkKIBApHQgiRQOFICCESKBwJIUQChSMhhEigcCSEEAkUjoQQIoHCkRBCJFA4EkKIBPqyW0IIkdDpw9H9Uy+MthdH2iP7EsL/1TFfojvvg7kIdS5DzJr1eFP1Yi/NCg2biXneJYh4bguWiW2EkM6PutUaM4BMTxwkhDz0tCgc/0JdVQ2qlW+1YtFbq9ZeVSu0d6hqLHtvJYaEal41PmpCQsdh//rJWCiOE6LNtCgcb+DQKylYqXyLvMFPuRKp1v5Kdjsv6k/uhlxhC7mRgThGiHbTonC0xOgtXghTvo2z5Kf0GqfWvsW5nRf1J4QQgRYdkLmF8weuqV6D2c4KI91MUJiSgcQcsY3XFV4hCsi5wbYekHl5Kk6NNUP8ml9RGPwMQhzN2KoTsWLGIUDi4IrCxwufvvw4HLoZQ1+HNdSVozB+D8Z8KdSuUgdkFIEj8eMsL8gq0rHt450IV7sGdHP8JwRg3jgfOJhzKwJqiq8gfu8evLm7nI31wrfrp8IdyVg97SC+4+do9Np7r2O2exViwtfjTe660kZyLH17PJ5wtoKsfrsv/Y71nyRiWwV/F8YdWzePRveEHzAr1hb/eSlIXHcdyvLisfE/0fiOu7B/wEgcmcMeD38fJdkHMeTtZDZgjHnzx2OSpy1khvXbno79X+/EMm5yMxRuLgh7NQA+Crnw3HLrvc7W+wZbLze92ecebXsuCJFAB2Qk6cLxmWfgfmUnXnwuHENYMG4Sp6jwDsC6BSPhaliA+N8O4cCBaMTn3YbcylycoSmFjw++ns6CpCoTEW0JRhban4T6QnHnImIOcOuKQ55OL/iHTsePT3NzXMHuZPbGZtQH/mP5uyhh87kaA/UX3Deyxarl0xDSxxilZ6PZsg7haEo5TPqMRNgnAZgk3KmRVRDWvO4DpBzl543JrIJM4YvZ//bBYG56Vir2c+051WykEMn89rHbsWxuKuZ9OB2hvtYoTYsV2mPO45Z+NyjY+05z+DeQRZPhr9BFnriNB6KScUNPDgU3Q4vPfRueC0KaQafyqOMrR9YpT9+LyYvOq1Sq6lXgswtmIsxHl1WZX2NOlDAPx7WbDtJu1vHDKvdxYZXY4tFwYC/eiKVsXMNghB2730fsfvmH8GZYImLEZj7kVrwAn6o4LGbV1AH3AOx/zxfy9J0Yskhp4U9PxqkpLsjaF44pG+q3CWy716pst/+rU/FFiC3Sti7Hi9u5FqFydECJ2rzG+OTL1xFkU4iYj1j1JVZ/0qct9WfLGAeHnEOYzLa94fk00oErqwTTGqpUJUYu+PF/k9n05p+nVp97DZ8LQpqjRZXjTUSzPtha5VsU16cDcllFodK+LBu5/JT2y8tQDUYpl4vL2E9j9PPtxV7IjeqDUYWLI75dIATjgf+2IRiZwWMGwEGvGslHlYKRU5GL2AzWpbZUgGUdkHyKVU/st4Mbwoy4BkGYlyNQm474X7ixXghyYyVbfiK+UwoVTszWNPaYdaBwshJbRDnxWKYybzmOZnBvooZgBWArylDKBaCNK2a5CS28imaCkVH8bRBc9dj03c0/T60+9xo9F4Q0T4vC0Qh9nu+Bkco3N+G/3txNrf15CzTfsdVEOXKzxMEWnP75GGLyqyHznIofN83E1jB3hPJ9PnVmeHIB66Ybs0pr3RYsThGbNdTHjNubZwD3l8NwarPqbZ4n6yKy5SsCuDmrsebsFUDPER7juXHGyB0+LjqoST2DcD6MzGFqyH7ZBOJrtWWdWj+S77LKuttwMzYou5bb5I3iQAm3n9MYlq0e+bqC7w6cR1mXXghZFIYTX43DJ2PNVAJNXZA119/OR+7vwriU1p97TZ4LQpqnReFoCCtHSzgq3yy5Vzl7iVqqtTuaspft3bjN7ftvHavc3py/Eq+vOYTkAlakeI/GvOVzsfVl9bVXI+86CxM9GfoOtBX2mbVZIdL4fWtStxOIFcM875dzSKtlXdaB/fn1DH6eVZ3svvEHVU9uqmHVoPSy2E3cV9hRYrbuxYg31mJbXCZuGfdH0Msz8ePXgQhVquiaqkN1S3t4NHjuNX0uCJGiReF4HQenJiJc+bb3Oj/lyl619qmXWL1y/5yOSsTf31qLyR/uRNotAziMHY+FKi/8KqQu+gERLHPk/s/gy1dZpSdO0URhFQtryFB1NRGLv5e6ncem+qP1FecRk1bNuvED8ZqRAZ5lYax68KESNbWAvl45dkkui932lYjzdqCbJQj/8leMmbYc4dG5QDcfTJ+j1n0XCY/XFo4hwnhLWnzuW30uCGmeFoVjd4z8wQ1zlW/B3fkpvYLV2n+wvy/nOSq66aiEXF5KOvZz+wBZ3drdWWhrVI5lH/yK+JvsBRzyCr5sUl0270BsOqt3WLc6yAv+YltLVsddRA17BjymD4E76yFnnY3HaXEakI6kLFYW23jhtUCxqUOx4PcVB3msclPZL1mHbd+l8t10man04eoDB87x+z5dg0c2W11q+ty3/FwQ0jwtCsfHoGOoDwPlm95jwiQ9tXbD+/Mh6KDp07FzzVSsmuWFpa+y2xvPYPpAFnr55/CL1Pl7rCs4558/Ib6Yq3CmS3S/m5EQjR8TWDVnNxJffKO0vlkj8ePymdi/QK0C++00C2HW1RziBbnEwYfwDYeQVWsGn1lzsf+DAGFZ7PbFe1Oxf/0z7f7439ECruI0g8eUQLY8X/y4oD8bd8N/vnpdaT2++PajABZs5Uj+XTjaMjj0GZzYHIb988XHkR6P8H1XUGPuhXlfT8OPb4iP943R7PkWPp6o8XPfynNBSHO0KBw7n4sZmSjUsYVP4EiEhLDbEGuUpuxF+HvxqkeVlXEB+flBZFW1LSA3ha9D+G/nVdfn3x+KukwcOX5NnKteIaLSCtmbhoH0wYf0ZMz/707E5JTBxNlXWFZIEHx6G6LwVBzUDmJrLG/DHmy7WAJ9hQ9bXgAcDLivisvHhbwqpfX4oa9hLo6u+wF/3yfcT0rMhi34z+Y49jzJ4OovPt4hTjAoyMQfbLrmz30rzwUhzaDvcySEEAmdPhwfdgqFMdy764pjEqqrkHyxutVzLgkhHYvC8QETPlXSwufoxM91S358kRByz1A4EkKIBDogQwghEigcCSFEAoUjIYRIoHAkhBAJFI6EECKBwpEQQiRQOBJCiAQKR0IIkUDhSAghEigcCSFEAoUjIYRIoHAkhBAJFI6EECKBvuyWEEIkdPpwdP/UC6PtxZH2yL6E8H/RV6G1m7cv9r8VAJPsvZj/3nm6OBV5ZFC3mrTM6P5crIyQzkaLwvEv1FXVoFr5VisWvbVq7VW1Qnu7mGHholdw5EPuynmPkFG+2LnmFXwRII7Xi47GmNBwPEFVI3nEaFE43sChV1KwUvkWeYOfciVSrf2V7Lu4qL8BFL2sINNv4bouD6Me9lCYG0BfHCXkUUf7HJuwwqpvXoHPzYMY8rbUxacfUi9PxamxZohftRZzosU2Qh5hWhSOt3D+wDXVq/DZWWGkmwkKUzKQmCO28brCK0QBOTfYhnBs7mJXWfvCMWVDY2i+ecIKYU95QWFUP43N1M0KS+eNwROOrOrkd9PVoSwvGRGrD2GFcO16xh1bN49G94QfMCvWFv95KQgO5jqsnZs3Hhv/E43vbgpzcvwnBGDeOC82j4HQUFuItAO/4sVN3MXzGY3WKVC4uSDs1QD4KOTQ51bJzXudrfONEoxh2+TAz6Wk4cJejds8Ilzp+thGZpg3MwSTPG0hM+QXCFQVIutsFFZ8mal07egOfsxSpLal4hpifv4Bb/7GTZdj6dvjVZ8n/rGfQu/lcxGiyMWBsJ+wWOV/CBg8/QV8PcoGaduX48WtYiN5ZNABGSUX40/gwAHuQvJs5OZ5NnyIvx1VLiBNBuPfY3Rw9PNwDHlODEZm4duvIMTZADeSo8X7FEJf4YXQBYEIFWZpZBWENa/7AClH+XljMqsgU/hi9r99MFicRfH0ZHwS6gtF1UUc5bcjDmnFhpArxNBgNF2nInAkflw0Gf4KXeSdFeY9EJWMG3pyKJAtLD+Fe1OsRlac8JgPHE7FReHuTRnZYtVnMxHq2wu4nty4fRUyOPg+g08+cYe/OGuDDnrMTXDbslx9W6IRX2gASytuBjm++GSa8DydEh7b0YRc/o1FwR7vmjjuXcQW7mPU12GAZwfaspBNwWEKxkcSdaubaK5bLbabFCImfD3eTBCbRQsXjEbZroMqFdu8RXMR6nYb8Wu+xpworkWoohxQwtpY95Vv4xjjky9fR5ANW/ZHbNlstQs/CsMkxys4MG0LFleIszGu3YA0sdLSaJ1GLvjxf5PhiiuIWLoFy9QqygbNdqubVo5ChW3IquZ17M2hnG+rJ0yTKVVbHfuY1c37kD1eF66Cb7otPN9AHJnPQvnsTxjxXxaK9brpwPVmHdLAnp+N7PkpjsPiN9gbhzgZ7gHY/54vDNQrZvLI0KLK8SailyVjrfItSnjF5LIqSKV9WTaUXgYd69YVnFYLRs6yz1VDirMiu4D9NIYlK2pU5MRjWUNIcMpxNIN7UzKEPgsCTl4Z90K3Rt8pZqzCaaQcEpqsU/G3QXDVYyGwu4VgbJNeCHIzY3+ORGySCKNNq1jlDRY8nmpH+zvoMaswYhWqC6v40g9hvlQwcnLLUcp+yRz64TVxPTw+GDnpOJzK7mvpgtHefANv0ggXVnMWIukIBeOjSovC0Qh9nu+Bkco3NyN+irmbWvvzFjDnp9wDxYU4Kg6qMDJA6NMB+PajZ7BzzVyc+P4tVompp6Kg7Fqu6r5T5kAJ9+JuDLXvtkUh7ZYBHEJmYuf6V/DjLEdMUn5xczRYZ5A1tw81H7m/C+N3zxymhkDN1WxEiC0qKvJxnSvUWbf1WaGF12GPWZm3FbqzX3k5GU2W3YCF8raYa6gx98Lsr9/CkfCRWBhooBK+30WnoYxFYd8Afi81Y4VgNzacdw6bJN4IyaNBi8LREFaOlnBUvlmyVyljbKnW7mjKXnL3yJ26pi9EF9Z1/Hou5k3xgaOJLmoKziMm6igizt5F1ZF+Hi/OWI5lW1klVm4M18BnsPCraVgVKE5v0zrrUP1g9pa0TWuPuTk11eKAtE1f/YApb/2EA8n5rJT2wqRZc7H1I6X9otGJSGLVqdy1PyZx46O84GHCKsu4eDq38xGmReF4HQenJiJc+bb3Oj/lyl619qmX7uI8x7YLnewLB0Nun9pyjHhjC6a8fwhvf5+I7/Lv9jPddYjYHo0pb3yNF7+KRt4dOXxCR/IHWzRdZ2HVbfbTFo4hwvjdK0YpW4V+D3shSNQZ2cDShP2+nottQksbNf+YmyipBheLCicXYbwFeXm5WPzRTxgxYy02pZRA33E05r0sTmTd501nuYM0/RAcAMz27QN9OhDzyNOicOyOkT+4Ya7yLZjrVAG9gtXaf7CHdIe2Dcy6qXQLW+JgwXVdS1B4ShgXGGOeZ/u3wrWbeEqKKC0mDlzhA0MZ35XUdJ0HDpxjla4OXINZwAh7IVpg1nT/aBNXEJPGusPdvBD6ctP6PHQOC20WWWmJbd/B2dpjbiL5jDDdJaj56tKIPXblx11RghXRmawbDZiYNZ62dXp/OnuezNDPNwD+rgYoS2VvNOI08mjSonB8DDqG+jBQvuk9JkzSU2s3vJvPA19DHncAwNwdoQu8sHTWZKySLFsaHczgDv/0wojPxuGLV9l9Xg3A1m/+AXed9vdln337LZz4qn55XvjkvVcwwo71INPO8BWZxutMj0f4viv8Prd5X0/Dj28Iy1v6xmjsXDMZC8XZcLmQDwyHgMn4hE1f9Z6vdLXGfPdlBOKLDeAw9nV+Hx43P7f+H7luvrcZyhJ+xb+2izO3QWuPGQGBOLI5DCc+6i+e/lOOt1cdRFatGXxYV3n/BwHCY2Pb8u3ymfiRewDeQVjzzUxsDfNtmLY11Asy5CL5gNK5kznxiEmvg8zdCw56dCCGaFU43j/Lvt2LtGJdKHxGIiRAAYNmDoTWO70uApsSclFj1h/+Iew+o/oBCb9gXnwrd2xBVhoLNJM+wvLYLchVB3lRP+HtD6/w+zzbss6YDVvwn83c+ZsyuPoLywsZ4gSDgkz8Ic6D6ENYF8OWZ+KCIDbdp3sd62w2oyIXc95aj23JLKBtvPj5Q0JYxdilAPE71+PF8KYHXzTR2mOWlJ6M+f/diZicMpg4+wqPbZQPHPVykZrCpmdlI/Mm+1t6BjRM634rGds+Z8tVK243nctkb7QG0KcDMYSh73MkhBAJnT4cCSHkQaBuNSGESKBwJIQQCRSOhBAigcKREEIkUDgSQogECkdCCJFA4UgIIRI6TTjSOY6EkM6EKkdCCJFA4UgIIRIoHAkhRAKFIyGESKBwJIQQCRSOhBAigcKREEIkUDgSQoiEThaOxvAb7nfvLqv6oAUtwZY9e7BlUWvXGpUwYyX27NmCJUHiOCHknupU4Wg9ZQnmhYVhZVjwwxuQhBCt0KnCsWDrEqw7dhPdhs+mgCSEPFCdrFtdjsjwuVhNAUkIecA64QEZCkhCyIPXaa4+2JQx/N74DGGjbZB/MBz//CqWxWY7cAcyJlnj9OdLkPTEXDw32A7GOqy9KBVbw5dgQ3IvPLVIqb08B6e3rsSSX1P5uzeQB2LW2y8hyMUaxnpCU21pAS4dW4cl/1PfNgsEvv4eXhreD9ZishdlR2LL3m546fXBwMnPMPXDKGECp+9TeO+Np+HT0wJ63DbUFiHn5Has/O8ONGxFw+OYiiVHhSbjx2dhyd+D4NzdWLhfXTkKft+I6f/dI8xACGk3HZlMtkQchpGRESorK8WxB60WOaeikCP3w+jRo+Enz0HUqRzW2kbeY/BCXxnqevjBp1s+Yo6fRkaFGXr1doC7T2+Y9p+E5waUIzYyBn9cqYSZkytcvT2gyNiF2FxxGX2nY+Xy6RiqMED5xWgcjvsDaVdKIevpCif3AIx0uoHI4xnithkjeNEqvBlkB4NbqYg+fBJ/pOVB32kYxvjZ4DEdHdTlxuKX41n83PyyP34B7iZVSIs5jJPn0pCn6wwPr6EIGnQbeyJThOWKjyPv918Qxd116D+x5t/BcLjzJ6IPsW1Py0JpVxu4dr2Bnw4mcvcghNyFTlw51musIHN+nYu53+WI7RriKy5HIC8SYTNXNlRigYu24J9DWVlXm4kd787FugtCu/GL4fjxuX64eWwhpocnsRY7TP9qJZ7qXYbTK1il9ptyjdiPTfuInxb74Uv46CRr4k7XWTAY+pd3sGpwXWPlx6rJlz9bjyl99VDeUDmKy+6Zjz3vzsYacRv4gP1gPeZ6lyFq0XR8xmWdWuXot3Aj3ntcn20TG/9NuBfHQm6BosIicYwQ0l6dcJ9jU+U1XO2kB2PTbkJDO+QkKAcVEJV8ia/IalOPNgQjp3xHBvLZ727WfYQG+6fg11sPtRd+Q7hKMHJSsW57EutSW6DfSD++JTiwH4u2IsT/qLo+1rHGhoPcvErql50aqRSMnHJEnkhlP63Ri/XCpeQUlbGfxnB6YjxbeyMKRkI6RicPR2N4/ONjLJngiLLfV2LuCq6Sa49yFKSpBVtpLWrYr5pKtTApr+VDU8/ARBh37AYZ+3Uz+6hqsNU7moMC9suiez9+1K4bq0YrryCVqyLV3RZ/1xOXrec+HXv27FG9zRvMHj1gbSN9wnjODzsQlVcLC+9Z2BixEatZhRnckw5dEdJROnE4KgXjyZWYtSxSOpw6o9raNm1r0XkWhrulb3vjMsS51JRH4rOZL2L2ij1IuspCeehTmLvmR6ycIYQ0IeTudNJwVAvGDx9gMGbeBNeB7WYfxFdyTQTZsc4vUJB3mh+9Vc3qTlM79LXnR1WZ6kFfHOQVl/HLlt0uwJr/rZG8bfitpX2s5cj5bQ0WznoJU9/bgKRSPThOmo3pVEASctc6YTh2omDkZO9A/J+s69t3FMJGqadOP0x/2oNtcQFSjwtd/r0XuTCzhv80tfMzjT0wd5wHxLOABIlRyChky+4XjFl9xTYNGcstVJZfnrwVx9K5Z8oYFq5CGyGk/TpZOHayYOTlYM2XO5BZa4HB837Exk//iVn/mIVZ85Zg9U/heKo3Ky4jPsNn4j7G8m+2I7aIPRLvuVi/agnm1s/7zTL4VOeoPZ7TWPHjaRTp2WH8J1uwetFcYdn/mIsln67Gxh/eQ3NfUeHz+kps2bgaS+Zx87Nb2EpM92RxmZeEvXQmDyF3rVOFo/VzS4RgTFiDuZ0iGEUX1mHuu2sQmV4GWZ9AjJ8wHuNHDUa3ylREfv0e5n6jchwcH836CHvOFwA9ByOYmzfQCUheh4+2c4duVJX/xgI0fA9Sb3D7DYOFZY8NgkcPIONwFOLF+dRlpGegQMcGg0ex+bn7+FnjJqseP3qz8XQlQkj7dbLzHI1ZmAQhfvce0AkphJAHSQtOAieEkPuvE5/KQwghDw6FIyGESKBwJIQQCRSOhBAigcKREEIkUDgSQogECkdCCJFA4UgIIRIoHAkhRAKFIyGESKBwJIQQCRSOhBAigcKREEIkUDgSQogECkdCCJFA4UgIIRIoHJUZ94HPlnfx3PrhMBWb7hXThbMRGvE87MTx+7luQkjrKByVddd9cE/Ig1w3IaQJukzCA8JVjhOGFOP4pJ/R0pWpCSEPBhUrhBAi4cGGY9/BGCwXhzXVNxCBbbwAPiGEtNUD7FYHY8lPczG47jTWzF+CPZqstu/LCP9gCvqVReGj6Z8hVmxu0fTnETrRHGe/WI1sl4nwC+oDS2NdoO42iv48hfhVx3D9ojgvrOG2cRo8C/dh0/wksc0DwyLGwuzUeuw+3BM+0/3gZCWDDptSW5SFcxG7kbqjTJi1Xh8n9JvzJAb2lEOPzVhXW4i8U4fx+6cZqBVnadqtbnnd+6J7YvC0EehtocvWfRtlbNuPLz6GIrXnTTZD6TFy8127iOR1u3A5TpjO8/XmH0dvuYzfPtSV4XrcbkR+miVMJ4Q8yMoxEuH/3YNM2WDM+nIJxrdWQdYHI1KxNVzDYFRi5P88gkfaoCjhCGL3ROJMWglk9n4IfjcYpsbiTC3pyoLqzeGwKEzGSXb/2OMpKJM5YNCrL8HtSXEeTh8237IpGKQALsew+di8Sdk6UPhPwVOf9hFnapsu1iMwev4Q4NwRft1nLlVB1tMPY5cO4UO6Hhe4k8a7oeuNJGEbD7NtNHWD37sz4cruzhsynH/MToYFOLef275jOPvnbXSzNhNnIIRwHmi3ujx5Dd59X4OAVA7G98Ow4YLYrjFzuPYtxKFpaxH/eQIuf5OA1HfWYkdkLmDhDd9Z5uJ8zTMd6ITStcsR+c4x/v6XP9+FfQsPI48t2/O54ejKz2UAu9nBsEMWYhcqrWvBauxLKIZen+Fw9eRnbBOZvTmyV63GyYblfYeTV9mEnp5wql9eYDCGDzFHacIGRMyNxCVuG1fuw+HFkciplcPzb0Iwy57sD0uU4cL3W5HKzfNNLFLmrsa2j1L46YQQwQM/IMMF5Nx3dzQfkH2fwrKFdxOMgry4YygtF0dEtatO4hLr51raO4ktLbiagHOHxeF6F08h9eJtwEoBG676tPeAc29dVF74HZcbuuqC0pgMFkly2HiLDW2RfQopKusuQ2461582gJH4fFmOHABT5CL1Bxb4yi4mICcP0Othz58/WVnEPQkyVsk6qFSddYXscRBCGnSOo9UX1kkHJB+M0+Ghf3fByIVJ0YVqcVhZMcoq2S8LeasnXpfl5aJOHFZWUcLtbzSHkQ/71ducxQ7rgQ98HqER76re5nrz08xsrNnPtikt+FMcalRZfIv9lMHUQRg3lBmwn7YYulJtvezmZ88mmcrBdZzrNh5G/NVqVjA/j+e2z8awhR4w7cktgRCirHOEI6c+IA3FgHQZjyVcMCIJ6+4qGDm3USuVbPWqqhsOlDTnTl1LlVUdaovFQaYo9TC/r1HqlhCnNGNHq8rCWYl1CrdTuMHNU56LtFnLsXllJFJZ11wxZCwmrHoLftO56CaE1Os84cjhAnKRGJBfzMJgLhiXLcSOuwpGjjnkUj1ne3tYsZKxtigfXAHZElNLG3FImQGs7MzZAm6g9CwbLa4GV58a3r4m7JeUuOUdlqpg715tDQtvQz1UR0qv9/I3GSqPse5wAs7MWY3N/96OtFID9J44AXaaHJgi5BHRucKRwwfkGuzYvQNrOiQYBXY+fuiq9uK3nDEUChZn2QlqOwil9PaA80BxuN7EJ+HWgwVTZgryufGzfyCnkHWr+z6O3u07MN1u+We504Rs0e8VW7GlGXLuFB8l5y7iYjq3a8AEXV2EJkIIoCOTyZaIwzAyMkJlZWs11H1wIw2JCYlI4/uBd2nQQLj36Yqi2z3hMdEOdd0NYeLdG44zn4WvkxFqL0fi6OcFuMPPLIPV016wqUzHuQMFfAtgA/vnXaBfdAe2IT6Q9fwL+gMU6D5pDALHOsG4Ngsxn0WhlD/fsBI3yoxg59cfriMGwsJZH136WsGCrc92ShB8X+iO/IjLfHVpMMwHfWyrkL35D5Ryd21h3Ya57LmIVjuaxD8uc5RePIHsRDZ+Lgelvp5w7e8Nl+BugJWMPU4FLIK84D4tBDZWp8AWA9O3/oGnprvgr14GkLlz0wMwZIgNDAp+R8y3ueLzQAjpfJXjPVGJ7I3rcTxThn5jguE3fjhcu5chJ2YrdsxPanV/I6c2fRd278iGmTd3/2AMHShHVXYsIhf+jBzlwvNwJA5+Hom0Ql0ohgzn5/Ub448+NrXIPHpWDMJ7gT2ehetxOCYLVaZuGMStl9vOIU4wLExA2glhrvJLGbip0xMDnxSnP26NsnO7ELHglEbPAyGPiof/iyeUPiGTEiW2tYnSJ2SW1Vd0hJCH3SNSORJCSNtQOBJCiAQKR0IIkUDhSAghEuibwAkhRAJVjoQQIoHCkRBCJFA4EkKIhE4TjiYmJuIQIYQ8eFQ5EkKIBApHQgiRQOFICCESKBwJIUQChSMhhEigcCSEEAkUjoQQIqHTfLaaO8/x1i3ucqNtYPoeFk4cBOEMyVpcPPg8vrvOjxBCyF3R7srR1EIMRk4tKu/x9/ybLpyN0IjZcAsUG+4n7hvNO2LdQ/zw5PZ38fTnbioX9W9VR63/geG+0f1dTFjY9uuGk0eTdofjY+Jv3k0U3LsLtDw8jPTAXf6fENIyrQ5HJzMLcYi5dQ15nfnSeWP8EPT9NPR70JVX1DHse/pjbF+QgjqxiRDSlJZXjvriAFN8DRniYKeksIfCwoCOgBGiJbT6taowNRKHWOFYfBm3xWFCCLlbWn20OijgF4y2F4azo/6G1X8Kw3dNbo3eYePg7moNGXfUoq4YOVH7cc5kDMYOgeplXsV5Bzhbw1SPa7iNsj+TELsyEtf561kLl3a14waVlSZg90uR/HWsu/5tOHzGe/OVJb+62kJcPvgrTn6j9LdQusRststE+AX1gaWxLpv5Nor+PIX4VcfE9XGs4bZxGjwL92HrMWs88SxbtjGQs+tjHF/X3KVmdSGbNRZ+/n3QzVS3cTv2bMXJ74ulL3Hbhy1rGffYChC/ej3SDrM2X2/4TPdDb7kMevxCynA9bjciP83i79LIAL1XvQW/noWIf38t0s6KzfXGjMWkWR6ojVmLfZ/qNjyeTZt1MXTWCPS2YNvIlp3Hln2cLbuOrbehnf0NSi8dwdHFCSgrF5dHl9glbaTFleNQ9iIWB1GBoo46GGNsC7fPp8Gvnzkq02IRuycSsTG5MPR/HqO8ZOJMjewWsXldDVCSeIyf9+TZQhj09Ebwu09C2LxspHLLOMcFXTVyYtgwNx6ZAv51GxiMkS/5ofudS0ji2vfE4kqNHM7jX4Hfq00PnRix7QgeaYOihCP8cs6klUBm78fWFwxTFoAqTIdi2ARdpH78MTZN4oJRbG9CBrsv52LSGDfIai+K2xGJpEu3YWTVzOGbPk4Y9C4Lxi6FOFsfjEOG89vhZFiAc/u5ZRzD2T9vo5u1mXAfFdW4HHMRtZDD4Ulzsa2RTRDbFuQidYvSG4Rhfwyby96dzh3BSfY8XSqXQeH/LPxZ27B/DocsO4a1s+fkUhVMnYMx9v0+4h0JaTstDkd9oTLhFXTYkWrT+RPhacFCbNdaRL5zDJe/ScDlz3ch8vVdLOZYpaamriAJke+uxvFlsfy8l95fj6PnqgGL/nB8kpujGNe5ZVzmquJKFJ5iw9z4xlzxgEgZciPXYvu0XUjl2r9hIfvBMeRzldWgAfwcjczh2rcQh6atRfznwnJS31mLHZG5bH2sYpupFjJyIG/NPuSfE8eb0XXBCxjW2wBFpzYobQe3bPZYPpWosrg3kHenoJ9FMc6uWosULhgZ2ZP9Yckez4Xvt4rLiEXK3NXY9lGKMIO6n86wgAMs3TzQVWziGbvB3lEXtRfZMrLFNk6P7ijbvBon+cd+DCf/vQ85tbqwe/JJyBK34PD7wt8gdcFPOMMyVc/RDTbiXQlpKy0OR0dY1BdypUW4Ig7eHVs49mUBU5iA+HVlYpuoMAWpyWptTN7H+5S6s4Lrl6+ynzKYOgjjLYqKxZlVarsyLmYgnwt7C7lYfTbKizuG0oauoqB21UlcqmXVVm8nsUVUmoXcU+Jws6zh6MlStDAWR5exkG2NDqtqP53K3kCKkbLmm4Zg5FQWcRvGVXMOKudQ1hU2tzc4C5dSWJdd3gcOrCBs8Jw7nPXKcOmoWqiWXsSlXeIwJ/sC8m5wA7lI+1F52wuRm8X+VnrdYeopNhHSRtp98LR+64tyO+hINXsxsTSqzMtmNZ6EOokXubEBTKcOx6DPpyDo+7fw9JYwPDdRk1RspOPthN4LJ8Jv5TRM2MKWsX0aPNVTkVeGogusKm2iGGXcBquHaVEhv0+zZTaQt/SYVXSF/UuvYGjPWlzashFn96s+H3UbDyP+ajUrYp/Hc9tnY9hCD5j2FCc2o/S38yhiJa7zqPqTs7mKmT1/XBDuF5vqFRaoPZ5qVFdxv2tRrVxhcvi/lQ70mvbYCdGI9oajQQ2KLl9GxuWL+D1VqXzpAHU1Gn7Upo8H/Na/hQkvDIGdqQ6q8/9A8qEjOJ6g+Q5/03dn4tnFUzDUywYGtayLfeoYEvez7rxkqt1GbUsnJ1ZVs5hQckfz4/eaPeZalF0rZj9lsPG0B3/8SVk5q+BmLcfmlZFIZcWzYshYTOAOukxvuq+2wak4pP7Jngc3b/Bnrdp7wIEFatG5BA2CnZB7R3vDsfpnbI4JwzcxCxFxo6MOU1ehmmWETGGr0i2sZ9BVZc8YTP/mh96GrHu5MhwRM35G7DuRuPRNAvKutl6D8Yw94Okrx53sSPz6t7U4umArzvD707JRIc6iyhxytZ4zz94eVqz6qy3K16D6Uyc+Zjtn1f1+km6jcN96HDhVDFmfiRi1WLX7XK/ucALOzFmNzf/ejrRSVglOnAA79YNFDcQDM8aseh7DatOpnlCoH4gh5AHQ2nA0NHkG4wa+j+ccQmDVYY/iIvK4nO3hjYH8wRQlA/0wYKDqkVtZN67PVoySOGFcIIOzd3PdanOYKU/y7M7mZvFwI1+14pvoAXvJbjVg5+OHrmpBYzljKAuUamQnqO381MhFZF4oA6y4U3BaqPCUlC7biOOXhO7z6IW2YisjVztgde4iLqZz+2lN0NVFaJIUcRHZtTI4+A+B40B50wMxhDwA2hmOFu9hwYTnEeAxEJ5P/B1vDfu70hdQ3J2cnadQxELMbe4bGLaQVYYzvOG88HlM+MADddmqB2QK0rmDAA7w+Woi+rH5es8YjqEbZ8NRR6LqyRD2//UOfBrObF63D/xgGpOB/HIWp95PN67rg2l4OrQnKiX7lNUoMvTFpDVTxPX5YdCatxA8UIbay4dxZos4Wxtd/3g7zhYZwG7iG5iwMpjfPm7Z3ClNQf+S+qKGMuQsWIvjl1lADnkZY8WANJ01A899/zx77rj7s9uCKRjuyQL36llc5s9jtIbb9+8idMsU7gNDjcpTkJZShq59n4CbqcSBGEIeAO0MR5kFTJS33NgCVuLgXYs6jH0fRyLtGrfPbDj8xgdjEKt6Lm3ciLMFagcg1mxH5KlcVJu7YRCbz29MfxjEb8PhOImT2aMicex4LipN+2Aom3dg99usWszCmZWsK15k2LAud0U+4v6zl3UspVQie+N6HM+Uod8Ytr7xw+HanQVVzFbsmJ+kWn22RXkuUhasR2xqAXvQ3vz2+Y33Rx95JXIvFIszqWPrXbgFZ9n7AB+Q79qi/FIGbur0ZFU3d/9gDH3cGmXndiFiwalWt61obzKK9AygV56By+oHYgh5ALTzEzJdnsQzo2fDR86G79QiO3oJVue0p0tJOg325jCWVc/gPxFD+xvJg6fVHx/U1e2Nrncu41Zn/jYeohGLD97AWM8SxM7dQPsbSaegtQdkOLdvUzA+FIzd4OomowMxpFPR6nAk2s30zbFw4w5irZkIZ2Qhfh0diCGdB4UjeWDuGNrDc7wfeuvkIn71z7hMu41JJ6LdF9gihJB7hCpHQgiRQOFICCESKBwJIURCpwlH2t9ICOlMqHIkhBAJFI6EECKBwpEQQiRQOBJCiAQKR0IIkUDhSAghEigcCSFEAoUjIYRIoHDsUFZY9U0YTn3iLo4/orx9sX9TGE581B+DxSZCtA2FI+l4Rk2uaE2I1qFwbBczLFz0Co582F8cJyqiozEmNBxPvHcep8WmtgoJHYf96ydjoThOyP1G4dguBlD0soJMX+06zaTDyBW2kBupXieckPvpwYZj38EYzF1BsC36BiKwrzhMCCH3yAP8JvBgLPlpLgbXncaa+UuwR5PV9n0Z4R9MQb+yKHw0/TPEis0tenkqTo01Q/yqtYhyGodpw/qwikQHqKtDWV48ItZGY0U6m2/UaJyY7g799J0YsohrUGaApcvnIsQyHUkpVvDwNBPbG2XtC8eUDdwBmVfgc/MgJm+oxMLpo+CjMOan1xRn4si6X7E4nh9t4OrvhcXPPQ6HbsbQZ5vFb9fNizixYa/qvA2PYx2iXCdjdqAjZNyuvbpy5MXvwb++vII0YU4NGGPe/PGY5GkLmSG3Um770rH/651YlsyP8iS3LfMQPl2UjAP8wSfhsb55wgphT3lBYVT/PLhj6+bR6J7wA0aEXxMWpunfIWAkjszxgky4V6PsgxjyNrdxmm07IXdLRyaTLRGHYWRkhMrKSnHsXstAfLopvEcHYtQIV5Qej0JaS6uuD0akYuuyD7DnhtjeGo8BmOFiiHIdZ4QMscDVM78j/nwmCv6yQC9HV3gNMkLFkUycu1iMgSO80MtaB0Y7LuCkeHeeux/+NbYndFMOYdnv+dC5cRO6PXvCvPQ8DhxLwqVL7P5J+Tidb4xxEz1he0cfvk96wiLnNGIS05FTIUMv+57o42kC3d8ycFq8wr3/y8/g/170hpXOLWTEx/LblXNLH7a9ndHffwA8byRgX5Ywr/A4ZHjM2hMhLpWIP5aA85euse1whF3vAfA1S8DmxDpx5pbN+3A2Qj1kuHE+jt++SwVV6N7TErdTE7HvijCPPwuz/3vRS2XbLl2vgbXVY7h08ArOsZDiH6uuBXxcynBoxQb8fXUstiVx97bGs39zhtHVJPwQW84vT+O/Q001rO4UoNjAFr3MSpB8IBaJ7Pm9dD4LR9OrNdp2QjrCA7+GjLH7LHz8wXg4lrVQQSoH4/th2HBBbNcEX7H0Am4lYsW8Q9hUIbYz/jNfwBcjbFEYsxZjvirB4Okv4OtRNkjbvhwvbhVnYibNn4aFvkBM+Hq8mcC1NFZNQjVTT2w3qWYV1DpWQYnBwMxe9DpeczNE2la27O2swY5VVx+NhkM52663VLcLLmzaYjbtVhyWvR6NCK6t/nEUq83v4oOdHwZCcT0Oi9+IZhVda/qzqm4cHHIOYXJYIvLEVrAqzhV1SOOW6x2A/WG+kKuvS0X9Yy1Uel7qNVc5avZ34ISGzcQ87xJEPLcFy/gWjgbbTkgHeeAHZMqT12DuuzuQKRuMWV8uwXj1fZB9n8Kyhe0MRiV58dFNXuQxa+ORxqo4eS9HKNj46Z//QBbYC21gf35cYIVgN7ZReeewSSUAWnDrPCKUgpGzOiEDNWzZ+mJ/cfCYAXDQYy/oIxLhk56MiGQWEt36IZiFsrK8OLX509Nw+Tr7bWgAzXbflqGUu7+NK2a5CS28isZwCR3Rjy2Lhd43zQWjkltXcFrT54XR5O/QvNa3nZCO0jmOVl9YJx2QfDBOh4f+3QUji2DkplWLw8pKUFLFfpnLEcSNViSzrj7rmroMxGtGXAMzygseJkDW2XjNT0spLsRRcbDBrToWjkB3ayt+tI8Zl5L5yP2dH21iUwFXQZnB0kkYF5QgN0McbFCCG1wwmMjhIDS04gq+O3AeZV16IWRRGE58NQ6fjDVjlVcjh+5mQFUu0jQJPanH2iwN/w7Nan3bCekonedUnvqANBQD0mU8lnDBiCSsu6tg5NwG63U1r6qa1UmC8OMpLMR6wed54TSS2b59oF+bjvhf+FHN3Klr7PJ1QjFb92LEG2uxLS4Tt4z7I+jlmfjx60CE1r8hcGrrUCoOtqhNj1Xzv0NzNNp2QjpA5zrPkQvIRWJAfjELg7lgXLYQO+4qGDmsAustDiqzs4ctqwpRnN+4r+6304i/CSjc3DHYqD/8XQ1Qk3oG4R3cbbtYUsZ+2sD2cWFcXag1d0S8ELnnhPEOd7ME4V/+ijHTliM8Opd14X0wfY5Q1ZbVsAQz6YXBHf4pyDb8HVrSwrYT0lE6Vzhy+IBcgx27d2BNhwSjwGGQL0LUqovZr/pAgWqkJSqfulOIqDRWvyhc8OyLA+GqV4j4g80cBjXrhmfFwbY6vT+dVVw6cB0xsmnV4+KOSe4sHK+nI6rDT09h6+wmDvLqsO27VL76k5kKpyht+52rnuXwCXWHP9/ScTT/O3DMoFDZ59r6thPSUTpfOHIu7MG6/63Dng4KRrAXXpnhECxd8Qy+eNULS1/1xbdfzsVrbsaoyY7Cau7osZKIX8+xF5wt/ANsmzkQcw15rLqEuTtCF7DlzZqMVaHCFI3lxCN83xXUmHth3tfT8OMb3HZ54ZOwqTiyZDQccAURK8Uj1R3KDf/56nXs/yCAXx//XHwUwMKpHMm/C+GUt+8gVieUQN9+NL74ZipWzarftmewf3kA2vpQG2n+dzgq7nP1mBLIz/fjAu6jmq1vOyEdpXOGY4erQurmH7Dtsgw+o0YiJCQA7vIyZMX9irffTkaMOFcDFlwx6XXQ19NBXkqy5IGYZd/uRVqxLhQ+bHkBChioHpzWSMyGLXh7XTSyqmRw9ee2aySCPOWovhSN1Uu3YNk9eb3n40JeFUycWQXH1hcS4oe+hrk4uu4H/H2fOAuzKXwdwn87z+poW/gEitvmZoZbl7NxUZyn7TT/O+Rt2INtF1lAK3z4+RwMuCM2mm07IR3hgZ/neM8pfTJjTrTYpoGwD9/Csw6Z2PaPnR2+v/GR1M6/AyEPyiNSObaRnQ/8XXTuyYGYe0sH/u5mCGnh5q+yz44Q0hyqHCU0/USMthA+mdLS+Y7CZ5/FkfuJKkeiZSgcG/THqg9MUVbdh1VfVqg5+xNe/G9uG87hIy2icCRahrrVSiz7BCDIXY6ai3uxiIKRkEfaw185EkJIO1DlSAghEigcCSFEAoUjIYRI6DThaGLCffMAIYR0DlQ5EkKIBApHQgiRQOFICCESKBwJIUQChSMhhEigcCSEEAkUjoQQIoHCkRBCJGh5OBrDb7gf+0k6FPf1YptnYlWAOE7II0irw9F6yhLMCwvDyrBgCkhCSIfS6nAs2LoE647dRLfhsykgCSEdSsu71eWIDJ+L1RSQhJAO9hAckKGAJIR0vE7zTeDct/LcunVLHGsPY/i98RnCRtsg/2A4/vlVLIvNB0G4yFX3hB/wYpQtPn35cbhaCnFdU3wF8Xv34M3d3Jb1wrfrp8JdLx2bXtqJFfwcjQZPfwFfj7JB2vbleHEr16KDZ6eHYJpvH8hNdPh5UFuItAO/4sVN3AXwgZDJAZgW4gUHcwN+nJuedTgC878vVLvkQyvLarjeyzpEuU7G7EBHyPTYPHXlyDt7AOHhmarX+jaSY+nb4/GEsxVk3OLYfIWXfsf6TxKxjS5rS7SUjkwmWyIOw8jICJWVleLY/WVgYICamhpxrD1qkXMqCjlyP4wePRp+8hxEncphrfebNZ79mzOMiv7CsNGDYZ6fhOOnL+BSQRW693ZGH09XeN5IwL6sEjzWuy+G2feA4Z3fsT1VvDvPDGHTgtDrsT+w9aMMnGXBv/CTf2DaoB7QLb+AuGNJOH8pEwWwgnWXy9gcx8I2YCTWTvOBeUWaOP0adO1c4dCvP3wNzmLbuTpx2Rosy2MAZrjI8Ji1J0JcKhF/LEFYXk9H2Nn3h3u3JGxOEJ9ZI1usWv4yhvcEbiSeRExyOnKqusHZbSCG+eng2v4ruCjMSYhWeYgqx3qNFWTOr3Mx97scsf1+qb88agni16zFnCixmePig50fBkJxPQ6L34jGATs2Hs7G0/di8qLzjdWddwD2h/kCcesx5stCTHpjGhb6y1GW8BNeDG/mwl8Bvvi2XzoWr1WqEl18sf/DAMhzDmFyWCLfrtGy+MqxF1CciBVvHcKm+upPfftZU2jYTMzzRpPH6v/qVHwRYou0razy3S42EqJFHoJ9jk2V13BVjR6MTR/gFezzE/GdcjBy0uNxNJ1VcJYK+Bmx8Zx4xGez3w6uCOXGRaEj+kGOXMT/yr1RWSHYXQ7cjMOK5sKMEx2HvysHIyc9E5nc+425HEF8g4bLEuXFKQUjJz0ZF/PZb0MDtn2cXghyM5N8rDFb09jydaBwshJbCNEuD1k4GsPjHx9jyQRHlP2+EnNXJInt919Zfh5Oi8PKbpSWsZ9mkLNqi/NdQjrLcRf4/E0Y5wOnHwuc7D+whi96bWBpAtRczUYEP715rp6OWBo2DlvDX8GR7+fixKZX4KPyBeuaL4s70JWbJQ42qEZpNftlImeVMcccpobsl00gvt4chlPKt/UjoWCTZN1t+DkJ0TYPUTgqBePJlZi1LPIBHZAR1bW0t/M2aoRjKMjbegbJrDpz8PTBYK5hbD/0NapDWkKySmVXU1u/z1Ba6IJp+PGdZxDibg392jJkJkTjyG/RyJLYU9HasgS32WMQB1tRwyrgAwcOSd+OcaUxIdrnIQlHtWD88AEHI8NVTFzlpMoA7rasKqy9iaxksQlXsDuZdZ8VLphoB4Q97gb9ihQc5o9QcypZmLHl2ToiRGxpwsgdk3xYRzfnEN58aT0mv/cr/v5VIhZ/n4Pr4iwCDZbVJsLy9PXKset7bn0St33iuwAhWuYhCMfOF4w8+wGY5yYOixRjA+HPepk1WSnYJrZxIqLTUQhbuI/zgY+LDgqTT+M7cRqQjpg09ogsvTDt5WbO4HTvhu7sV1nhNZVTbBRjB8BDpVutwbLaJB1JWay8tPHCa4FiEyEPCS0/Wt0Zg1E4Wq0oZhUTC6a8uHhcYA/LQOEOf3cr1uW9goilW7AsXZydZ4Cly+cixLIa0LuBA2E/YbHyQXb+dJkX4GPOAjAnEfEphahm95G79oHttf2Y/KWhcM6kUTnyElg3/Tqbyq3PVQe3auWQIxErZhzCJo2WdU3pPMe1mBPNb0GDhZ+EYZI9ewzPscfANbiwx7t4NBz0qlF4kS3vMrdPlT10hSv6Ot/GiWm/CvMRomW0unK0fm6JEIwJazC3s1SMopqMvfjP7myYeI1ESMhIBLnJUZMTh01NgpFTjTVx3IEZA5am6dilfvZRRS7mvPcDDlxkwcWqtCC2vJAQP3h0q8LlNK7begWLVx9CVrEhFN4B/Pr8e+QjIvwgMoUlNGp1WW2Unoz5/92JmJwymDj78usOCQmCT29DFJ6Kg/oBe0K0hdZXjsETghC/ew+KxJYHr/ETMiPCWQBpSDFlMnY+7aj0iRhCyIP0EJ4E3n7+7mZcT7gZOrAzqUNOC5t4688SxNxsTziK3WrzZKyedlBpf+PDwdXRDI4ycURCDzMdXC1p4dB4WRkOZGp46JyQDkLhqGTr5jDx/D1pwqnlzcvaF44pG9oRjmqfiHnYCPspxREp3KdG9YVBSdkHMeTthsP7hNwXFI4dTvNwXLhgMkzLK9HH1x2K2kSsmKf2iRRCyAPzkH1CRsvIXRAUyIKx6jy2fUrBSEhnQpUjIYRIoMqREEIkUDgSQogECkdCCJFA4UgIIRIoHAkhRAKFIyGESKBwJIQQCRSOhBAigcKREEIkUDgSQogECkdCCJGgveFoqICByxhY+I6BsY0CXSjmCSEdSPu+eMJwJGz/8Tx6WuipBuKdCtyMXo2Lh+/uWtWT5ryChQFmyNr9P0zZxF2k+VEmfP2aA32fInkEaV+95fY4epVG4OTSX6DybYldjNAtYCLMxNH2kunpiEOEkEeZdnZG7cei7+yx/OVIVXTAo9n05XoMeW6lFlaNvfDJ8mnYP99KHH/QOtv2ENI22hOOMnvomLNbxgac+vJjpG/6GKeX/xcZeeL0R545eivkMGjpOg73VWfbHkLaRivCUX/YfzH0Xx9iyFvqt3fgpBBnqqeYhQFLN+DxJSth62YuNhJCSNtowQEZP9i+Mwu9jMTRllScxtkNNXCa5SdcRfAWGw9fiUp+ooYkLmgfGjYT87xLEDHtAMrmjMMkT1vIuF2TtYVI2/sr/rW5BMoFrMLNBWGvBsCHVU763HwV15AcuRN5XjMRonxBfNGzr47DtGF9IDfiZq5D2fWLOLFhLxbHC9M5Ch8vfPry43DoZiwss64chfF7MObLK81cwKpE8qL8zQmZHIBpIT5wMBf2udZcT0bEmmvwWTSyyQEZYV4vNq+B0MCeh6zDEZj/fSH/PLS6Pd2ssHTeGDzhaAUZX1myx5zH1rf6EFY0uaZ3PSus+uYV+Nxk2/JtGb6YGajy/KYd34N/8esXr+SoKETMR+vxpvpxpFGjcWK6O249pBczIx2n81eO5s4w0SAY79wuRu6+n1HZwxLGYhtMnGFmLQ7fNUN4vP8KnrUtRPxvh3AgKhmFkMN1ciiWjhJn4bi448t3JsNfoYu8s9E4cOAQjqZWwXHCKxihXuUyXPCGhfSHQWEyjrJ5D0SloNSkP0IWTMMX3uJM3gFYt2AkXA0LhHUfiEZ83m3IrYTK+I9jXNt5tj0s1HLi+HUeOHACsVn85Fb5szeEfz/nCwedXMRHCctPqrLHs+8EoMkmB4zEv9i8ijsZiOHXE4esWjkcQkLxZagQlq1tz8K3X0GIswFuJIvPT3Ih9BVeCF0QiFBhluZ1YSG5YDI8cAUx/N8hkQWiFVy59b/M/eWrsSaOS1g5+g5venhu3jA36IM9zl8pGEnLOn/lyHWT6ytB5k7haZz/8VvcKpS4GpV8JGxffBm95OI4inF5zVzkt2W/ZLOVoxlqWAX1NqugYoRmKMaOxtaX3aGfvhNDFnEvSANWNc1hVVMZ4tew+0cJ83EUgSPx4ywvyNiLuqFyZEFzZI4XcPYnvPjf3Mbq08ULOxePhCJLWO6zC1iA+uiyZX6tskzXbjpIu1l/Pef2XC+bsWP3+2g0HMoTseIt1Yt8PTt/GsJ82ZOpXDkG+OLbfulYvFaoEnkuvtj/YQDkOYcwOYwLK07z27NwwWiU7TqoUiXOWzQXoW63mzzGRmLlaFKHvAP/w+Tvy8V2xqgXvv2/qXDXS8eml3ZiBdj4ejZeFYdlr0cjQpwNRv3x4//GwTVrLyYvOt+4/YRI6PyVY0UFbouDnGsnVqPCdjYGLN6Ax7l9i8q3ecrByKlFXYdd0a8cSfsbg5GTty+TVU1swFAmVFhGfeBhz/p56SewTO0FnscqshM54ohodmB/FpasitmkFIyc9EQk57PfNvZ8JXW5uIz9NEY/315w5aaLGoOx/RRP9oODXh3SjjS9+uG2tfVBpyQ6Dn9XDkZOeiYyufc1czmChJYWLftcNRg5K7IL2E9jWPYSxptVlYKDysHIqbiCXxLZm7qeAq6BXMMVVq2XsO67CwLrq29G8beBcNUrR/JxCkbSus4fjsXnUdpQUBaj8qoPbMZ6wERXbGpJRTbKisXhu8YCoUlFU4KSKvarPhS8rfjTi/JyMiRffNV3xAFRNxnXDbVFUHgYTm1WvYXYsUkmrLvKfp3++Rhi8qsh85yKHzfNxNYwd4RKdNHbI8iS63rmI/d3YVxFRR1/vX11rp6OWBo2DlvDX8GR7+fixCauohMnasLIAKFPB+Dbj57BTlbZn/j+LVatt5aKouvXGitBJQdKuMBsDNdNR1L53R4eI+pPJTLALE828VYajv4mNhHSAi04Wn0a+fuSUN4QLN2hr8nBGeZmbETbDsZ0lJo2nCNZdQXx/D45qVs8/uDmqcjFm/NX4vU1h5DMCiwH79GYt3wu69I37F29S3Wo1nBvSuiCafjxnWcQ4m4N/doyZCZE48hv0cjS4MNNPBfW3f56LuZN8YEje4erKTiPmKijiDir4a6AO6xbLQ42xcKcK7I5CacQz2aU9fPCa9y4nTvc2RtKYUoiNvEzENIyrTiV507K50he8jJ+Xyyx/zDvEM4sX4RT6rdPZ+Hi8WxxpvukVtgB0N1OqgoygKl4cLdeWQ3rFhvqoOxwIhZ/L3XLVKmSTkcl4u9vrcXkD3ci7ZYBHMaOx0IN3yiaU1jFbbM1FHx3VI2dAfTFQZ6ROyb5yIGcQ3jzpfWY/N6v+PtX3Hbm4Lo4S2tCJ/vCwbAE8WuWY8QbWzDl/UN4mz3W7/K5ElwD3awkD9rMtueOvBXj+iVhvOHAjJET/EcBk54ZCAUdiCFtoBXh2CLFSAx660N4hM6F2/wP0cspG3XF7FbWYTsbNReXiUy2Wn3Xx7HURWwTuU4YCX8bcUS07Vwm+2kLn1DbpkeFlSi66ahMz0tJx/4MoRvZ3VloqyezaPK5oRYdOHsFZSy43YO84C+2CXQw71Uf1e1y78bvNigrvKay71UxdgA8mulWq2+PgwXXjS9B4SlhXGCMeVyXVxMmrhgzQTjdqIGLD0a7sXee6+mIUjp1J29PGtJqjdHX1wfBbizU089ijdp+X0KaoyOTyZaIwzAyMkJl5QPpiMLAwAA1NVJ7uNQ5wmL4QMgeE0d52bj02SKUOkyCYcEOFF8Vm9vDYwBmuBgiLz4B+64ITe7+3vBVVOPiLylQPW3QGOMmerJ4y8fJ3Zk4x170ebIeGNXPAX0C+mJ4T8Czfw9MfGosXn/8MeTdMIO5rKRhObdScmDlw7p7fb3w9AgLDLSUwd+zB4ICPDD7pdF41jIe25KAif9vBr582RmePfXhO4Cb7o/J3qxbe+0UvvghD8Lr/S8EjmbbYmON4d3vwHO4B0J0M3BIfAzNupKLnoM80dfBFSMatsEF02dOZGF5HcXmZjAqycA3h1h//s87CGBBaGfniHG9ddDf1RIhY0djwTAz3Ko0glHD88CR3p5dXRwwzskOvQIa1zV7zkT0ulMEI2MjFKfH8o95cOgz2LpwPJ7teQmb4oQ3Av65rqmEgZcfnur7GPo7WfLPxaIXvSDvwqrRjTuwXPn0pdrrMOvnCd++9rDsWo2UnfuwiXs/IkQDWlg5HkJedJ7awQ179F28Do6mSbiRIjY9IKc3/Yq3N8Uhq9wcrv4jERISBI9uBTiyaguSmuyKLMeyD35gL/4rqDHpD/8Qbn5283aCyc0z2C8eJLmYkYlCHVZhBorTh1ijNGUvwt+LV6rgrmEZW29ehRlcufkGsUqpRJzUomose2+d6jaMGgj59Wis+CAVqrsSr2Dx6kPIKjaEwjuA3xb/HvmICD+IppkjvT2n10VgU0Iuaszq19UPSPgF8+LVjkA352YcZn1/CjW9/ITnwt+etZ3Hgc9VT52q993BcyjUM4B+RQZi6EAMaQPt+8qyel3MoWPqDKO+DuhSeB5lOemoq+LOq+m8loZzR6EzEfHcryqfkCGaUPqETFu+Po2F+P4wX4A+EUPaSHv3Od4pRl3xadyK+wUl6ec7fTByJyA7cvscr19DgtByz7k6miHEvYWbo9q+u4fQa6NZFUwHYkg7aG/lqGXqP2VTGMMqmK/uz3Ms/RlnJVr1JbbtqBzpEzHkLlA4drDQ+a9geq8yZF7ORB73cAzl6OveHw7dDFBzPRqr34ij8+zaRfNwDJ0zGn7lFbD0504buoIDS7dgsdoncghpjfafytPJXLySjVIjW/T1HSkcMAj0gkKvBGlRW/CftykY74caQ3v4hAhfpBGzjoKRtA9VjoQQIoEqR0IIkUDhSAghEigcCSFEAoUjIYRIoHAkhBAJFI6EECKBwpEQQiRQOBJCiAQKR0IIkUDhSAghEigcCSFEgvaGo6ECBi5jYOE7BsY2CnShmCeEdCDt++IJw5Gw/cfz6GmhpxqIdypwM3o1Lh5OEhu0gTu2bh6N7gk/YES4hpcmJW1j5IIfv54M14o4rHg9+p5+K5LwnZ0liHhui/BN7/dx3aTjaV+95fY4epVG4OTSX6ASJ12M0C1gIrhr2xHSQK6nennZ++lBrpvcNe3sjNqPRd/ZY/nLhKqgrrWGeuGT5dOwf76VON6RzLBw0Ss48mF/cfwByzmPKa+GY8iDqNwe5LrJXdOeOJHZQ8ec3TI24NSXHyN908c4vfy/yKDvvm8Hc/RWyGGgJ452KAMoellBpq8rjhOinbQiHPWH/RdD//UhhrylfnsHTupXw1fMwoClG/D4kpWwdTMXGwkhpG204ICMH2zfmYVeRuJoSypO4+yGGjjN8oMJN36LjYevRCU/sQ2MzDBvZggmedpCZiheoa+qEFlno7Diy0yla0U3XtfkzRNWCHvKCwq2nVn7wjFlgzCHq78XFj/3OBy6GUOfW1RdHcoyD+HTRck4oHRAZlasLf7zUhAczPmZUJaXjIjVh7BC7Sv+n311HKYN6wO5kTjf9Ys4sWEvFscL0zkKHy98+rLyOstRGL8HY7680sxFt0oQv2ot5kTXb89PWH3dF7NHOUKmUz8NCJkcgGkhXmwbDYS71bLn5HAE5n9fyF+8qv4iYuqUnw+4OOKLmYHwYZUrv23cMhLUn9dWvDwVp8aa8dsV5aT0fHDPbV48ItZGKz1vEteeadP9Bf4TAjBvnI/49wFqiq8gfu8evLm78XrbTQ7ISF73pqW/eTw2/ica390U5qynyd9cXeO27EHZ/PGY5N0LMq6nwP0vXPod6z9JxLYKYPD0F/D1KFsUxqzFmK/UL3TeC9+unwr3qjgsez0aEWLro0JHJpMtEYdhZGSEyso2R0mHMDAwQE1NjTimxDwItsMc0VUcbc6d28XI270KhWbD0buvHI9xjQbs8ZzfjzINrxfPM7LFqs9eRYiLGWquJiHm9xRcvHQNd6zs4eQyECN8ynDxUAFy+JmNMW6iJ2x1LeDjUoZDKzbg76tjsU08YO7PXoT/96IXrHRuISM+FvHnM3Hpeg2srR7DpYNXcA7WePZvzjCq64bxIxxRkRiDODZPQZcecO7VC+79a3H+QJ64LuEf/q1hdriTL27XnxUwdxoAr2F90f9yIg5eZTN5B2DrP4fB7s6fiItKwPlLuSjqagnnrjfwzeECdNOvRMXVKlg4W0I3Jw6//X4Bly5dxtnE6zhXKm6PngI+lplY/e5WvLkxAfuusOUGjMTaaT4wr0hD3LEkttxr0LVzhUO//vA1OItt5+pgwJatc+MmdHv2hHnpeRxg8126lIlzSfk4nc+W4cKCYfEEuMsqkXFSeD4K9OzgPtALIzyu48DRm9DoQhkeAzDDxRDlOs4IGWKBq2d+F5b1lwV6ObrCa5ARKo6w9fJX6xX/RpUZ+Ib93Xhtur/wd/zkGTeYVFxoeOwG9m5wH+yO4XdOYnuqMJ+7vzd8FdW4+EsK2HsJI7HuFv/mjvDxqkXiwbyGKyVq9DeXUL8tt3r7IKRfNZJOxuPcBe5/ga3HsS98PIX/45MX6zB8rCvsjGuRs/8KLon35z0dhH97ypF3Yjs+SKwTGx8dnX/HEAts5Y28U3ga53/8FrcK2dueOvlI2L7oorqvQHij11jonHHw6VbNqp11rNpRStXvo8V345GYPSUZMVvFdk434EL4QaxIEcc5LKT+PbYX9IsTseKtQ9jUsLmJ4u9GMjtWxaxh1VmU2IA0fPLl6wiyGYi/uccjhis6WDhNZ1VZ2dmf8OJ/cxsvM3r4GnYuHgn/yS5AQjqeDewHOcoRv+lXvNmwvDi4dhOeiIh9iawCqMPWkP4wuHYRi79vegqRzPwmtv0jjq8sGpUh88h6LF4rVIm8mFrs/zAADp79odiUiNNR53Gaq5a4q/7dymHLVr5KoAEW/n0kHKB+NcBEhL7DnlfPAIS5p+PNli8sqMQMrq6ZWPH6FpXn1n/mC/hihBdenB6PTU0qIWUa3t/OHfNGsb9jziG8GZbYWN1uzcSqFS/AJygAIdujWS+gbZr9mysGIpT9zU+34W/evF7wsWLbPUNpu9n/wuxFr+M1N/Z//DT7P95+HodTA+Hq7oLR3uxxKF1UPczLkVX26Yj5uVpsebR0/n2OFRW4LQ5yrp1YjQrb2RiweAMe5/YtKt/mvYxecnFGXi3qJDK0eb0Q5Ma6hTcTsUk5GEWbVsUhi6WtKwsDFbeu4LTalfpDR3AhVYiYb5SDsRk58VjW8CLhlGPb+Vz2Wxf6Yi91dmB/yLiL029SepFw0hORzFVlNvYIZb8uF5exn8bo59sLrtx0UdrNNrzz52c33eboOPxdORg56ZnI5Eo9czmChJbmsZDxsddBTdrvTa4GuCkuk0WvHLaeYoOG8uKjm2xnzNp4pLGKT86qMPXd0eo0uf/gMQPgoFeN5KPKAcNU5CI2g/2PWCrgLTa1icTf/GgGt0vLEPrszZaj6d+8eRLbzayOOMf+M3WgcLXlx7+LTuOf/74BSi8eI/b3cmF/r9QzCG/Ta+jh0fnDsfg8Shv6WsWovOoDm7EeMNGk5q3IRlmxOKwRc5gagnWns6X3r1Tk4zq3Ld2s8KzQIiguxFFxsJ5Dd5ZqVblIUwtNKWWF11T/+ZnTVVyYmcGytzDeTcbt57NFUHgYTm1WvYXYsUkmclaVsfv9fAwx+dWQeU7Fj5tmYmuYO0JbSwk1UtvDcfV0xNKwcdga/gqOfD8XJza9Ah9+564GHMxgyn7pu01tsv2nZnmxEAC6W7fl1KJy5KZJVTQlKKliv1oNbM3u38eM2zIDuL+sts3sNs/TmE0zgyKA/WqjsmtqgcccKOHekI1h2UsY1/Rv3rwC5KkEsCi5hN99IbMQwzA6EUk32RuCm1dD2A5+nr0psOciKZrbp/Jo0oKj1aeRvy8J5XfEUXSHviYHZ5ibsRFtPxjTHnfqJMMEtXUoFQdbVCfu3GpN1RXEHziEA5K3ePzBzcMqmjfnr8Traw4huYBlkvdozFs+F1tf5l7IGpLYntAF0/DjO88gxN0a+rWsi50QjSO/RSNLo52EjcouRklsu3DbH99SN1gd60+0VAxXVbPqqCVtuX8h0n6T3uYDB04gNkuc7V7Q5G/eguqWqr6a+ldHITYlsJ6KiSuCRnHjBnh2IKsqb6YiUth5+kjSilN57qR8juQlL+P3xXORr55CeYdwZvkinFK/fToLF49nizNpqhilrGrQ72GPSWKLCiMbWHKV0vVcbBNamlVWw155Jr0w2F1suEv88gx1UHY4EYu/l7plqlS7p6MS8fe31mLyhzuRdssADmPHY6GGbypNsC7WJB9WZXD73V5aj8nv/Yq/f8WtMwfXxVlaVVLNOnnsub1doLbdjbfwqLbs22qsqlXY2cOW+xsV57eyH1Cz+xdWcTt1ZKi6Kr3Ni78/j031R8w6WFv/5k01U9WO7cHvMii81ri/+fTPZ5FWa4y+Pqxs9R4Cdxv20ko49cgdoVamFeHYIsVIDHrrQ3iEzoXb/A/RyykbdcXsVtaeHSVXEJPGujbdWPdCotIKnePLuhrVSEtsaSe4YNvvKaiBHD6h7vAX2+7GtnOZ7KctW55ti/vSFN10VKbnpaRjP7dvjHXXujsLbfVkFk0+YyTNvRv/aSSuu628/0oxdgA8mutWm3VT3fWQfB4XWNdN3/VxLHUR2+6SwyBfhKgF/uxXfdjj1+xvpMn9D8Sms7qKdauDvDrk79gWmv7Nm2cGj0BHlX3P3P/BJ8Hu0GeP6kKsUqVecR5JWXXs79MPn3D7yx/hAzH1tPBjDKzLx3WxVWI9G5dXLwVeWYe7Pe37uy8jMHj5C/AZ+zqODExEfEohe6nI4DjEC67dDFCW8BP+tV2cuQV5+w5itZs95rFu7Rff9EN8QhqrQliHxdIR7j2u4ce32vaRsrytvyHCuxcmeb6ArV+fR/ypPOG0FxMr9HV1AuK/5s8lDJo+HfOcShB/VlgfTBzxxEAW9Pnx+KXhSLCw79TB8Qn8OMsAmcZWMDh1EG8314WKy0RmhQ/cPSdhZ9gZJF+vhoGChb6rDrhTU1WOgeEa8rjz9OzdWVe8BAPL7SG/tRNzNhUifGsiPGZ5IWTJTPQ9m4wLbDlcF07e2xH9LPOw7vWoNjwn1SgzHIKlK2wxOiaTPRcGUHhyFY8BarLZc9/q30jD+ydE48eEfvxZCl9849rwd4ShHI6ujpDn7sSYz+/Nl4Zo+jdHQCCOzPGBfuZezH+PO2OgXglqbJ/B+i+TEXP2Gv9/3Jc7k4C9oZUlHES42v7w8OMpmDS9D/zd2XOQeuCRPRBTTwsrx0PIi85DdcM+SI49+i5eB0fTJNxQPp2mPSpyMeet9diWnAvYeCEoZCRCQtg/VJcCxO9cjxfDm+5Ib86m8HUI/+08e49m7/6B3HJG8kfDb13OxkVxHs2VY9kHP2BT3BXUmPSHP79d7ObtBJObZ7D/d2GuixmZKNRpXF/IEGuUpuxF+HvxSlXfNSzbFIe8CjO4cvMNYvHW4u6+K1i8+hCyig2h8A7gl+vfIx8R4QfB1Tbqln27F2nFulD4sGUHKGAgHvjPizqEWV8dQtpNXTiIywkZ5QcP6zqkHj/X5KBWy6qQuvkHbLssg88o7rEGwF1ehqy4X/H22ywMxLmap/n9G/6Oys+rf38o6jJx5Pi9/DYlzf7mzSvB4fe2IKbWvvH/WOca0g4083/822nE3zSAvl45LsQ/ugdi6mnfV5bV62IOHVNnGPV1QJfC8yjLSUddlYYHNoh2U/qEC/fJnTa72/trgaaf1tGEHF98PQ3+eDQ/EaNOe/c53ilGXfFp3Ir7BSXp5ykYHwZGBghyN0NIszdjDG7vQSXSulGD4dONVfiP+IGYetp/QIY8PFhXe9F7M7G02VsoXmvXGddEE2HD3KBPB2IaaG+3mjy6qFvdKo271QG++HZINW7JfeDvKEPegf9h8vfiTuJHHFWOhDzKag3h6DMS/va6yIvZgtcpGBtQ5UgIIRKociSEEAkUjoQQIoHCkRBCJFA4EkKIBApHQgiRQOFICCESKBwJIUQChSMhhEigcCSEEAkUjoQQIoHCkRBCJGhvOBoqYOAyBha+Y2Bso0AXinlCSAfSvi+eMBwJ2388j54WeqqBeKcCN6P/f3vnAxbFkeb/b8QBYUZkQAWREfknICpEQSO4ikkkJ0FdzK4mrrgbZ83i5YK7ieQX9YxsPDEXNH/I5WDj4e6C0egmsiqaDcYIRlEEomhgQEBEhICKg8iIMEB+1TMNzAwNAhIYkvfzPMV0VVdXV3XT337fqpqpOBSeyOUTiEFhpj+eemMeRpUexqHX8rpd/bQDb8w9FIxR53fjyLZqPo0gBpehZ295zcaEukPIfOsz6K3eMcwC1r9YjFF8lBgkLETglqI3atzHw3XnS1h6cAN+c4iFg5FY9FEQ7Kby+wmCMTSdUcdgeKwN1iwXqge51oNPWjqOLd2Ogz22GgcaG3htWIVZTia4nZOOjJRUZObcwDCHGXhqywuQufPZiJ89JhKJJIrfhoWFBRoaGvjYwGJmZoampiY+JoDEESYWVhimzEXFudO4c/k0Ks+exwPHObBuXzv5Dm6dPAX6kfehhh0cX3DDiIoLuPLNj/1jqxaQuFQga9MxlJwoR+233+PON9+h8Iex8PRxxehRRQNQB2IoMCT6HE3nvo3Hn7bvgWFYhPz4W5CF+2Nkay2u/+NNVOTV8vsI48UY+hy1dZCVHsMnf6R+a2JIiKM/xr8Rjgk9WXXufjYuJjbBhRNHLn6PxWNi0StbWP4CfrPYChffi0OZ22L4z3fHGPFwoKUZyhvnkfVROm61LzptC6+k1fCpOYYD6baY8+sZsBcD5Ye341SCNof5r+bBL4SlS81gwiW0NLJycgzK4RFbwe7lhZg+wwHSEeycjBZVNXKTdkPxhSYKuLvA8+WnMNXBBiJWYIu6BpXnT+DsOyVoX39RbAOnzUswxdUWliIuoRn1N8/j1Jp0KDUZAFHoPMxe0lEvrpzSlAPI/FtPXibdtVtI6CQY8/oi+Om0S60sxOn3D6LyIhcTPkb2/kuY6wRUndqPEzsr+HQhzOD00avwd6hARkQiSsv4ZB6T8FV4fqEtivfHIHMvn9gJXhyLD+OT17pa/Fynnicc4Cf3h8tYieb6qZXXcPnQESiS64GFwVgS7g2zwoM48LrhTebraluIk79l7Scj1Wgx/l46K1eM7IEwtjbXouLYPjSMGwP2nGoZ6YpRtvx2L7EIeAFBT9tBmfO1pl/q2yt3mWfvj6ANQbBsPwGP5SzMXTQciu3b8cmSDmG03PASloT5w97ke1w+kcqXU48RXDnbDPq3xOPh9dFaPBUwESbVuchkeTNS0nH5thks29rgzh7Obcsw3R4oPaMtL7fMBPYByxD6TlthNpjERMV/khluntXmyTx/A602tkxueJYvRejv/DH6QQGyNefJQInSDDbjezmU0kW7DbF75yUEBYxDY8EZTX0yTuWh1nQ0pFZ8hk4wMf2vMCaMZlCee5gwcjSy61HIXg7jMTHEsA1MjHzGA6o8XOlSGBkrXJhzD1QWFWvj3WHO7sOf5kFac0l7n1h76iUTMf13YfB6iu3/IhNXmI0hcvbSlKmHzxNwcwDq874lYTRyjF8cLSygtTW0tNZk47sPwnH2zVV6IfOtCFyv8Mb4OW76jdKYa73FCpM8avDV6o+RtTMHpbtyoHjjYySnsodUOgNPhBs81TbsoYo/hqrLfJwjMAjznrBBK3PTPg/bh7zYjnIOsm2laCJmy734zExAtiyHj7SRWV8f4khEKopZ3tJdGciLiGPWHJfDDLK1QZDhGjI26dTrtTgcy6mFyH0eJvmwbAE+cB3LHr6Lh5HJ5ynetg9H1jArhSuGYT/THSJWzoXXjvHnSUfWmg/xZXwvXVqhdnfCC87uTLDK0nFiS4amPqU7DyN1zW4UZPFZDLDcFIagqVZQnk/Ese0PE0aevXkoY6azPRMfcz5JA4s7jwPq8tg155M6wb10lrJrosxBTtLDe6wtp7qg7uN3kfpGent7jm06wa6vFXyen8fOX4Mr51m9RS5wXMEfxGMexDwRbv/Ra3wKYawYvzjev8+cwg5uno7D/fFrMeXNRMx+yyCsW4UJ7IHtQI2W+/xmL6k8l446gze7+qNMFLMHcIyjC5/CU3cNFef5bZ4xT0+BJXsILu/N7XB322BW5OVS9uy4e4EZgcxq9MYkJiDqwi+Z9cXcMiEcveHqNBwNBWdRauCp1Z0pQT1TKjtuTecb9zTdCBJmtUh1r0VNc/vocUM9d45xkK3QF/mW3vaoCLS7Myo84K6j/SQ46U6VUbH6dLKchkPy8ir820wmjDn78OW2HgqjhkJcyWPtGuuOiTP5JEabGBUfFxZ+k7n+mL+NudMtJTi1PbXTPRfk+xzmCfDbbRSeh6KQ/aeOtYcd8yxaknJRztrj6NPxAuS6I5ynspty4yITTz6JMFqMXxxr81HX3hVZi4bv/WAX7I2RuuZkV9wvQ32fxmPqoSwQsiBqUc8pD1MdS22CFmUN6vjNNkZImLX04AZud/EQ3L3FVcwG0gD24WermZ95q6wbl87JSuMWm099QTs3TzdEzNDsG2XH/O+y88g5VY0GZuEG747EolhmbT6l72oq936NK3XMEg1Zi+f3roZfhAvM9V4qPUSg3Z25hsspeagbNhH+/7UBS3cthutiK0GDXuS2GMFB49FYeBjH37rW66lAypOFrD42cApsa0x3YjQc0tdXY8lrzD2uTMehfz+AcsPuwS6or6wQrNv9u9xLxwoWfuxDlYtiJpYi92mQtXXDLJwBV/aPU/7teSOd5kToYvziiGxUHcuFqpWPYjRMezI4w7iTcah3gzHtNEPd3X/vg0Z9a7BV17btOy1ND3fplIoT2n47gZBzTvsmqNu5GwdfTkTGRWYtOczA3IhXsXSnN3OleQrzkBUWg4N7M3BdJYbLU8uYaL2k7S/rDT1st3rvYebWx+EEZ+GKvTBLvha/3v1Up77blrpq1LALK3Fg1l5f5hum5aCYWb9Sjyla11ojRs0oPmMgRmIrOO2MQHCAGFUpH+NgRAbqe2E1t7Z01+4WqPkXcuXJPPaanQjXMO3LaUyAByTqQhR/qokSRs4QEEf2z5i3E5eiuL7FCFS1dZy1UfkVvn13M84bhnfCUXjKYNiyx1jBxsBz1uDoiLHsza9WVj1UdB/UM6Eb4YDROi6eLqPGMJdWzcTgDIvUNmrmZtq5daMIfJ4RzTe1/VwCofKEjrjeqEDplkQcCWOidLkW5q7BmC3n92loRsP+dGSs+RD/2JmOylYb+PwuSN8i7k9qalH1zgGkrojBobQKtNrMxLw/6o+WtVafwYm4HCjF7pi/IUi/W6BH1OBKDnPFbSbDOZAXI4GBGLstq+HvWIus2A+Rsav3szMsx3QaZmGYYayMu6e3UacZgWfwAzP2U71hwl4Kzh5mNBAzhBgS4tgt9k9j+qtb4f2bCHj9cSsmuJShpZaF+j52NvLI/PxhbmDZjFkzC/ZMospyHu5/3TpToOkHnLpCx2Jr46kgTHViz9HVPFRx8Ys5uPo91wf5ZNfW28XvUM4eNHOP2XDqzqoSD2cPIr/NoWKidJLrk2TCaqXtYzSx0e+TaDmVgWvcS8dcgh4a5b2A1UdP5JpR/7G23eajDAa2OE6k4vjhEm23wE6BmQEPoSWlQDMw4hwwTyNGnQZiZs7DdHczVJ06gCuG/YY9xckbroZfNVz8FLzG6dxTDTW4VsBumoMHnH43Da4iGogZSgydb8i04wzpvKmQPMZHNZSheMdm1E1cghHVyahlQtNnpk/FNHdzKJsd4L1YhpbRIzByhhOcX/o1nnCxgLo0FSd3VkPr5UswdunjsGsowuV/GXT4Fxfhe5ep8JwyFR7PyvCDzAySafYYt2wR5oa4YKQyB8deP49GjX/ehDtF9yANnAp3/5kY52OKVqfRkM6YBGd5MCaMzUbFxQbcrreAzH8yJj05FVJXUwzzGMvyOGH8svl4YsVoVB0qRWPA01j430EY175/EtyXzIKdWQW++ygTd7hndfv/w9PPWTMTSsLaZo/RSxbCx0OCxvzjyPm6J5203bS707ddpuIXnyyD++PmfJvYtfzdHLiMfIArh47he817Rv+Y1gt5KBbLMMlnMjyftEDZ8RL+OvWAuxVomj4bHpPtMFJ0FwV/O4XbuuM6wf6YOYnd3+/rMWyyPauPYbBGa80tNN41g/3OdVgcPhXN1Tm4rdE0bT1Nla0Y/29+zP3/AaZTtNcvMNgFYvU1nNmRhjodY7T5hglGL2RiOkECk+8zkb6rAu0TiwmjZgiKYxkaTPxgPWEkhrcLpBVGz10Cyx9yUf7FWTQ9ShegRhyHo3BXEgotvfF4gDezQCbCesRdVJxLwfHNCp3+xu5EAmj8JhulIkuMcnGFs6cbHCe5YKxVA6pzvkLam+dwT9e9qqlGmeIWml3sMZ6Zhs4eLpC5jINZUymKjhWijhP80hJcrWyAqZsjK2uSpjyZiwNGiWpR/PUZ3LjE7t0PwyH2Y+dymYSJfBnDay4j46PPUNb2xY+JMth7OMN5shtkrIxxVo24nv4ZTm0v50X/YfRGHJl7EuAKx7Y2TXKApLkc3/79H8g72na/Ox/TeoFZyk6T4ermArdAM1z/igl/DwXyHnN7PafZQnTjbCcxslz4C7iPl2DUBK4uQsEWDQXZuHVtOEY+MxNO0iZ8n6kvjqLLB/CvzBGYNDcAHlNc4DBmBOrLz+Gbt1N4sdeBF2uXscNReeafuJpNQzFDhaH3k2VtDLOCiaUrLJhwDavJZ/+cRWh50FPzoht0viGTl8anEYQGnW/I9OJrjvbvRGK+cwl9I2aIMXT7HFtr0VKbjXvnPsPdovz+EUaC+dwSmPtYdR08Db+BMhAMh0ioLjpB1JepSAOB40y4M0+EBmKGHkPXcvyx+Jlbjpab1mLRTIGBkjbqcnAkLLUH8xv7E63FJuNjQuh+n/3Ho/eWo/nrL2FpAPDtto+hoInfQwoSR0PIrSa6pKfi6AWvt0ehsdED03xsoc5JxJG3evNtH8IYGPpTeQjCCBnlOQ+zfGygVhzGv0gYhyRkORIEQQhAliNBEIQAJI4EQRACkDgSBEEIQOJIEAQhAIkjQRCEACSOBEEQApA4EgRBCEDiSBAEIQCJI0EQhAAkjgRBEAKQOBIEQQgwdMVxhD3M3BZC+sRCiO3sMYxkniCIfmTo/fDEiKcx/g8vwEEq0hfE1vu4800cCk+0rQVADAqz1iNhYyCsryYj4k8JKOeTu0eO2JRQ2GbuwPKt9DtxhHEw9Owtr9mYUHcImW99hpt8koZhFrD+xWLN4vjEIGJhClN+kyCGMkPTGXUMhsfaYIzmo+2Qaz34nIxG2JIQhPbYaiQI42ToyInEESZWLJQk4vz721H0yXZkv/s2SgwX+ScIgugHhkSfo+nct/H40/Y9UPIi5MffgizcHyNba3H9H2+iIq8n6zATgwv1ORLGxxAQR3+MfyMcEyz4aHfcz8bFxCa4cOLIxe+xeEwserUS95pYpCyxRfbO1UidFAX5k56wFbP0FjWUN7Jw8MNoJBdoswKBiNq7Hr41yYhMkyFimS9kLO/VQyGI2MXtF8N72TqEL/KDTCrSHCFcDo/YG8teCceiGTJIzfk0VTUy/i5H9DE+7hGKja8shZ+DFCITFlcrUZ55ELFvJ0OhzcHK8Uf4Fjnmu9lCzJ9WVZ2BJHk0UrRReD63ERG/1KkXK0dxeAci/9qTAa3u2i0kdJ4IfSMCS3XapVYqkPJuJBIucDHhY+TsGoU6AdXpcYiISUXnxfs6jlv9lQeifj8fnpqbxZVfjqx/xiL6c+6qhGDb/nB4myqQGBqJA5ocHcj+PQ5xwXZQfLoSkXtoiUBCi/G71VauGNkDYWxtrkXFsX1oGDeGSRLPSFeMsuW3e4loznZEPm2HO9kpSDmSgrTCeubZ+0O+KQpB7SfgsfTH+sUinNy2HCEhHcIYtCke21b5Q2ZShezjBuVsj4XcQ3O0FnEQouK3YdUcGUxvZiOV5U05kors26aQtrXBg4nBdjn87YHi03x510whm8PEc8cyvt2+WB+7ESHuElRnaPOkZpajabQd2ooRPx+D6Bf9YdeQz58nDYo7prBjgtsrBNttiBjLdkRDPscOTQWpmvqkpCtwx9QOsi4XOWRiGr2RCaMIyrNdCaMO5oHY/uozsKvJai+/XiKD/4sbEbWAuyopSL6gZDfVFX7Paw/pwBvLmWhDlY90EkZCB+O3HO3DMaXNEmS01mQjf8//4V7NfT5FB5unMX7lKkxoX8O4FqXxEajqTb+kxnJ0BuqyEbsmCqk6z4vnKwmIecaWWTKbII/hLCzegrJUImNrGKIztfk0zI/C/td8YVqazCy9hA6rjiFeEIX4db6QFBzAyvWJ7MHnBGQPVjGxvHqIWXS7dHO3IWOWVCxCHaqQsmEt4tutTibCf96NiBn1SNssxw7xRiS94Q/TnFgs35LK52HYSCGtUYJJBOTvpSDUrRwpy1k57e0TQ8qum7KmJwLRTbs7WYHauHNZCpa/HN8hcmJWH1YbpSZB95gsBG2OR8QstjczFuFbuxNGvmyWI/uD1Yg6rpPTIwIJO4JgW52GTfIdyHUMR9xHIbBrv+Y8s9j12uwPnI5C2NvZfCJBDAXL8f59NPObHDdPx+H++LWY8mYiZr9lENbpCiOHGi0CGtoTqs8m6Akjh+LDL6FQA7YTZ/NWGk9dCbL1BAIIXeDN8iiRtUdfGDlUx2OQVsoMGQ9faAwZ8fOY4yGCuiAZGwSFkeEYCn9mSakVqTrCyKFC6mkF+2uLCb4sWn4H9exD7OyPEN1rwQsjR3U91zA7TF7J1bENVQ+FUQeBdnemGve4Yu0nI2yazlVTtQmjLqbwf2UH1nLCmMMEslth1KHyDBJ0hZGjIBZfFnA3ywWzudOWJSGbu+YuU/GcTjUCg7yZSJfjzD4SRkIf4xfH2nzUtRuUtWj43g92wd4YOZxP6o77Zajv03iMCuUFQhNRbkLFdWBK7eCnTdCirMIZfrMN65EioOE6FILioULJTe5hlsJ2DvuYKdO4vHfKTnYtBs7WkLAP0TQ5UlKY66gbmBXKPe+2doEaEUhOr4Za6ovwv6cg6aMoyBfI9MQ85ZOjUNSJ4LxoG/bvZ9bwulD46r1UeohAuzuTgj1HmHgPc0ZI9H7sT4hBxBJf1vLOmE4KQ+QzMuZ+H0D0lpR2MX8Yqu8LBKcN3bzbxP5aw24mF1Ph00wF1CJP+K5ouxohWDCFbZdmI6mMTyIIniEwlScbVcdyoWrloxgN054MzjDuZBzq3WCMLrrmqiEN9foPbqu6ZxbOQ2hqusNvdY0yn4mhpp+wczh6roTlYJZkjBwrw2ORcoFJhoMvQtfFYc97cnhqi2BWVSIiV4Qhak8GrtZL4LlAjqjdSdio6Z/rBT1st2JPJJavjkLi6auol3giaE0Ukv6+sVPfbVNdFe4wY08smwo/3f7Yh9HMiWBX1Le/IFV70pHPKuw8IwwyLmHJbEwWq9kL7NN+uX/ET4shII7sGczbiUtRq3D2TYH+w8qv8O27m3HeMLwTjsJTfTUHxLB2FRAKx2mQWXIjodfxsDHdO/fYU24+AZ6z+AQ9xHAZy8pXV6H4NIvWsgeYfdi5PavZKwifR9Jcjfi/xAuGxOMd9pPqBnO/N69F2IpNSLykgsgtFGvX6LZJiexPoxEhX46wmDRUt0rh/2IkmO3541CTjQNvR0C+PAw7TjLL1sYf8lcNzlZ1FBH/mw2l2BPLNkXpdwt0g3isi55lrEWGadwQuvoOrmtGxDn4gRkHbzzrKMaqX0yGiAZiiC4YEuLYLfZPY/qrW+H9mwh4/XErJriUoaWWhfo+djbyOPvJ4a33xIkR+ocA5v6qUZx9lE/rmuTT+cwakcJvpY7FxiNewETIiT23JVnQlHThKHKZ6Is8FvGjqwJcSENJDcvjGYTw7qwqbqBDtwhVLg6c5Pok2S4rV02S1EbfqVWmxyGLe+mYizFWm9SPsProiZwSafFZqGJbpqM6n011PArRh65quwXeF5gZIIQTE1rd/kyGeEk4Aux1rjFPNrsWSiacfr+Uw9dDBOWF5PbpTQShy9D74QkshFPUC7DTk/UyFES9Bfw2AVaXVqE0h0/uC5rRahmUzMCQmpQjLT2fWWymkM2YD297EdR6o88d8/1CWJo+4vZRV9SVIzszF1UPmOXnEoCAyVKIlNmIDdcZDddM0wmFs0jNXOczOFOisRMhe9wbpplhiPwrJ6raUW5piwrl2WeQe5NzJ01h5+IJF9tyJPw2Gmnzmcv6RxfUZ2fx+yWYPC8QzpbVSF3PzlEAyD9MQZCFAlnnSzTWqKmDH+Y/boumSwlYvTG5By5md+3WHXnmR6sPBUFcmIUsTZvarmUTcnetxqZD3NkMjwE82X2IXuKsc51kkL8Xi1DnemS8H4bok1wu7XEy7mZZmqL89Enk13W0R6S+iuQNEUjQG8CSITw+DiG2aqhFVfjy5bWIp/5GQoAhaDl+hcpvKtHY3gfJ4QiPNxOYAOTidh6f9Eg0oSQxCgdKxPALDkHIoiB4j6lnD19Cp2k5XaNC6tZwRB/IRTns4LuAKycEgW7Me8w8gGhdYeQoSMCGLYnIKKuHxD1QkzckOACu7AEuuKTNwllVETEpUNxmj/isID4PE5pxQMmJNGRxma7mo+Q2E0zftv3M2q1j1uO2CI0wcpQoytFk6YlAbj8LQR5MWI7HI6pHwthbSpB/ownWbW1i13KyeTlS/zeKF0ZhFLs2IO4s94byZa525/5JXZquJCHq82KIffn2TLNGfVkGEjoJI0c5kk5zAzMiiG7k4igJI9EFQ9By5BlmBRNLV1h4TMSwGmbdlReh5YGa3/kIaCxH7hsyyxGlsU4I46WzxdkTxCtjsOd5VxTTN2KIbhi6fY6ttWipzca9c5/hblF+/wgjAbGDJ7yZK99lmKw/LWjoIUPYHE8aiCEeytAfkCH6Fb8Xo7Bt67auw3/K9ed4DjVmhSHAATQQQzyUoetW/1iQWz2E6LlbLd8UA3F9E7zneMNW3fmroQRhCFmOxM+D0Z4IWsCE8YECB94iYSQeDlmOBEEQApDlSBAEIQCJI0EQhAAkjgRBEAIYjThSfyNBEMYEWY4EQRACkDgSBEEIQOJIEAQhAIkjQRCEACSOBEEQApA4EgRBCEDiSBAEIYBxiaO5HcY62sH0MT5OEAQxSBiPOJo7wNHHCzYOXnCeMsFIBFKMZe8kI+VQEjbO55O6wfe1BKSkJCP2Rc3CnwRBDGGMQxyZEA43HwVTvjaPWboxgXSAaNAF0hrc2vw9RSIy5bcIghjqDP5PljFX2sFzHFSKC7hr5oaJrvYwNRvO6SV+qCtEyXc3oG6voZEQvB5xL3iifLecXwWPIIifGoNrOXLCOMULI82tYTdlGsT3i3A1Ox0lpXc1ux+zdIeLUViQBoyfAJlUArITCeKny+CJY5swtimMqRQWI7Sb6rrbUPNLrxqtQBIE8ZNmcNxqQ2Fso+karubcQItJI1rFTBS9HDCc39W/LrYUgf++EWHzPGHLL6WnLEvF/qPWCPt3X0BnTZLAzfuxflY1kkMikMCvWeKs2aNDXTZ2rIhCWhfrz4inLcO6PyyCn4MUIhOWoKpG7tFYlPttQ4jTVb5sjo41UcJPeeDPv38GzlJtp6fqRgaSNkUjRe/2iOG9bB3CF/kxS5bvHG1RQ3kjCwc/jEayzprN7e1YfxKyPz4PXwfW8NKORfk9n9uIiF92lKNWliPrn7GI/rxnq3QTxE+NgbccuxJGDtPhGN4qxmgfd1ioClF0jrnYV6rQzHb1nwUpRtDmWKwP9oT1AwXSjqQg5UgaqiTzEb7G+yGuci5OcvkvKdm2GuWnuWNZ+FcGSrQZOuMhx/Y/r4K/gymqslM1+VO/a4Lrc1F4xoHPY4jdUsS+Oh+49KUmf1qRCmIHf4RvC0fHODhrx6Z4bFvlD5lJFbKPa+uSVlgPiaM/5NtjIffgs7YjhX/kUoi+jsbykJAOYWSiHv2iP+xai9uvR7mJDP4vRiPm+aG9ECtB9JUBF0cLO09hYdTF1AEOMmtmBTWj6dZV1PCLIXECOUb6iFWeHwn5LCnUzGra+NtI7PhLPOL/sgORv92I5BtA94PT2Ujm8pdy4tiE6kzuWBYSU1GuzWCADPKXQ+AsUiL7f1Zj7dZYTf7YrWux+n9yUd/FycSOUpSw/BEx2vJ3/CkKqZVsh4Mflj+uzaNpx2xtOyJXrEXUB3ze18Ow8oNsKEXOCPn9KoM1pqUwLfoAmw7kon19KUc51gYzW7gsRe96RDDBzK4TwXPBWnjzWQni58SAi+P9qiLc5/sTu+Mxm3EYZT4cpmOcYcM/4ZxrfUvZg4O7IXCOJxMMJbL2JEDfYVQg4bCOaPQH4iB4O4mgLjiOmOP6JauOx+BMGR8xpOyMQX4F0ouq2acEktHalNAF3l20Q1t2WikTeg9fPM+naVGhJCeb39YiW+zPxFuN/NR4/XJUqchgFitsJ8CXTyKInxMD71Y33EDZxS4EUjfN1A720+fBZZKdpt+xv/ocXcYypW24DkUmn6AL57/3JzNlsGUfd8pOCoiuqn3QyRBVVUGn/Lm1XIoY1hO1cWtuAmZX7eBE8CaXXwrbOdoULXdQlcFv8rhYSdhfEbzXMHc6RT9EzODeSraQ9WACPEH81Bh4ceRgD3VngWzGnbxC9ljfwe3iO3yaln6f76hWC4jVj0dTk357Bg811IINV0JxjOtrFApHkXGVz0YQPyMGRxw5BARymEnb2HQH/S6MnHVoKYOHozaqh6Wof+cuqpvQxD7sHIO0cT1kEJvxm33gzj01YD4BnrP4BD3EWgtZXYXi03xSFygf1LO/EjRV8P2nnUIiUrty/wniJ8zgiSOHnkAOh5VHAFynz4Grq7Vmd78LIyO1iBs6sUXA6iD9wQqxNyKe9X7IgIwuHS5ul5y+hOvMUhN5BiHcYORY+lw4Auz5SB9IPp3PrF8p/FbK4cmntSFeEIlAJ6aNJVk4yqd1Re6pEmY3ijA5KLxTOQTxc2ZwxZFDVyCHDYfI3Kwfvzoog/w9/R+OKP/f/chQMgGZEYHdH0Uh4g/hCF8Xhbhd2+DXWN4zd5u5/Vw+5ydjNMdv3Loegdo9BqQg/l9XoRbJELI9CTGR7Fws//p3krD7+ZGo5kag+8qxaCRkMllzCkXM3jhEresoe886X0iV2YjbcuDh7cn8AElcOY4heuVw1yQmPglJm4RbRhA/dQZfHDmYQJZfLml3sX8Mi7GDNESHRyMlvxpw8EXQohCEBLoAlxIQfZAbEe4BJ2OQkM6E1NJTc7z/mCZmfQlT/tcIbPxrBsrrJfCcx87F8vvZVOHLdzcgt5HP1CdUSN0ajugDuSiHHXwXaMsOdAOqMg+wNkYhtUdKz5UTgR3HFKg2kbWXExLoDbuWEhz/OovPRxA/Lwb/hyd0MbfD2LEtUF6/9SMJ40NYEIX9zOpqOhuNsG0Gw7r9jhjhH+1HiKPuN2QIgjAWjMNybKOhCjfLBkkYGb4zXJhkqVFV8mMLI0P8HFy4Psfq69CfeUgQhDFgXOI4mHjIsWqWFFAXI+sIn/ajIUbQqwvgKWLaWJCGXD6VIAjjwbjc6gFBjpj9/pCUlUNRUqWZaiNx8IbfNBnEJioo9qxH5KfCXwbsC4FvJEA+UYXrJfkor2MJI+wwebo3nG1EUFen4QP5Dmh/4oIgCGPiZyiOgQh/LwzzHWwhNueTNL9kk4u0Ax8gIb2roZW+IXt+IzY+6wc7S5H2F3kY6rpqFGcmY8//pSC3R4MmBEEMND9DcSQIgng41OdIEAQhAIkjQRCEACSOBEEQApA4EgRBCEDiSBAEIQCJI0EQhAAkjgRBEAKQOBIEQQhA4kgQBCEAiSNBEIQAxvH1wWFWMHWZDXHbGqyM1ppc3CspQqveIlwEQRADw+CKo5UvxgSvgtMkK5gwG7a16T7U3AJYw0QQjRBhWKsa965moPRwIlS1au0xBEEQA8AgiaMIJt6vwSt0MsSoxc3Th1F+Oh1ND3QE0HQMzKe8gAlBvrAecR+VyW+hLPdRFl0hjI7AICz60wzg/G4c2dbDJSoIYoAYFHE0mbEZPkvcgMp05O9OQAP3o4pdMcweo379Jjy8RLh56A2U5tzid/QQ/gG05KNttDyoQWXOCZx9pwR6Nqn8BfxmcRfLCtbl4EhYKrifZdTDcSbmxz4Fe1zDqRX7UC70M2Rd1UPdCJXyBq6eSUfB36rRwqe3016fGny77WMozmuTu2TFUixb7s5eP6wuS1hdNIm28EpaDR/Dk/OUH96OU4OxTgOJI2HEDPyAzOhVcFvkBpPyL3D5Yx1hHOYNu4hEzH4rEZOfnswnMlorcXf/q7iUpcLYRW9gzGg+vZc0lGUgIyWVhXRcVFzDnRYbyAKWIXSnF/ifWdTj1mUur0FIzRNczc98uQ/slTVQYiJcw7pfjFq/HiW4Xl0PkY0LfEJX4/m9S2E/lc/YCRtMevZha8GyPPM5YeyCB9fwrWGbWFBc5PcTBNHOAIujFUYFz4O0uQxF+/ahSXewxW42RvPCN2raXOhLzH00HE1Aed0YOAUv7lOl1dUFKN2Vw0IG8t7Yh9QVHyKjrBki17nwCOAz6fCglMtrEJIqOlt2TBA9fWxQV3QUl0sB+5lPoO03dIXQr8cBZLz8MQ6GvYsjJyqgFrtj/oZgjNFbUFtLw4NGSLymw15gXzsLZ8FzbDPq6rpY1rCpBhWGbWLhVg6/nyCIdgZWHK0WY5yrCA2XD0FZz6e1UXUWt29rN+9+dxadHu/WXFR+lQ+4zoONFZ/2SNSjNPcG+7SCjcGC+71i4WTIxLXMLa5A+flCqG3cMXEmv6+nqBpRF5uII6dqALE3/F624Xd0cLugAPUid/gI7GvDfr4XJKo8VCi7t14Jgng4AyuObm6QohZVWQLr7THxq4pdhbNvrkJ+ahdLTn2XjeqmMRg1pV/UkW99I+p72Y2pi0aQavJxlVsI5lAhytQ9cX+FaYg/g2I1IHWb0tn6vJ6JK0w7pT6z2DUUYOY8+LgPh/JiJm712/Qnrq9yA37zvjfwxAzM+lsknj/E4gdfwfzXJ2q7I3TTD0Vi0c4ZkHSybodDEr4YQXsjWR4+X6w/pN2Z2AQxyAyoOJqNGcX+3kKD4aCzUzgmvxGP6e3hNYzkd+nRWonGe8AIS25N00dEPB5eAUzEVMzNPcyn9RZm5blyglTwHRq4OLPayq82a9xfO02GXsKOr+SM2bH26Ny1WoMrZ64x19sLk1bwSTpIn53GRLMCiv0/woDaiMmYG8HM4ctfIzMlA8UqCewDfo0AljZ3/TxIys6w9FR8W/wAlq5BCN7izh+oxXLTGixZyF4iDwr5Ps/zqJI8gWfkAi8BgjASBtZy5Ki9hQf8Zjul8ch/Zx9uwwJmFtogXLF8NCiBkaNd+XjPEdl6wGnNDBb84fX2KixKWgUf82vIjD0GoSW1ZIs5C0c/zJXzO3lMwrwhY6JVmtYhSJU5JVCLXOAoIGA94e4dw/6GDloSzjJhGg7XuTP1B10cvTHVS4L6y6dQWsanCWE5A4sM2vSbpKBOI+idGDca9Z/GIXMn10eZjsz/PIZy9XDInnoKkgv7cWJLhqbvUvHaXnzLLoXI2avj5RAYhHkzraAuPYYjqw9DoennTEfW6licuspN6iII42TgxdFqDEbwm3q03kJTd1N6NEyGOTOpWhrv8/GeY+7oD/+QIBaY++lpi2FXDuPA6n0oPsdnMEBotFp/VNcKLjPGM4OuENd0p9fsz2OuNROwgJmCo+APw0IieHV4rrE6MPUZNwtTF/JJDPPlsyATMcvy8DU+pQuERqu7GIHXo64QxbrWdVkBKjX9wxW4sqdCk6SlBhXXmLiLRsPSR5tiOdediW8NLu/N1Z8yhWZUfvkdun4VEMTgMqDi2HjrLvs7BuZ99YqHucKcmTl1t4v4hJ5Td343PlmyHZ+sjsOpwgeQeC7G3Je6HtwQGq3WG9WdyVzqsUxE83K1LnU7hbha0Ag4MEvVkU/qMWaQWA5nJ7/b2brmadifyaw2CVzne/Ep2tFy3LiIKw+bAyk0Wi04Am9ATbXB3M5GNGoqqEajoaXawn3FyQQivlt4lLWEtecGbgvVjZ2Yvh1KGCsDazkWFTEX1grWk3utGhqGzfLD2GG1qFV05zs+hJpalL++F1k3AbvA5zCptyPLPNo+Pib1c9fqu6ksBE3lRovHY9LyrsVXEOYey8YxySkrQ5djRGW5uJxXD5H7DI34moTPhae4EcWnzj9c5AaLpubOsw8IwsgZWHGsPYyb15k18cQqjOrOexRimD/GzWFqUJ2NO4/8LULmgn5yngm1DXxWzuhDv9dEOHkwi6gmT99FbQ8ZKGW+apcjy4JIIPvTHNijFnnH8vg0YZRHL7G6j4fnchcm7pxrn4NL+/mdRoaaCSMs7TBW6H3IrGTqcySMlQHuc6zFnWPpuDfcDa7LFnf0yVkthP2KVRjbPjIwEeNXRWBU+4ydMRi1Uo4JI5nVd3gfHto12RPSTiDrMrPAHOfB73e9nBe4YjpcmbhX5nyp76K2h3QoiuoBsQucdPoGu8TGFk47X8RcJzMozx9GHjctqDvOp+NiYTOkM5dgKjNOK8+fM3DtjYeqQm74nQn5b5mI6yK2gmuwN41WE0bLwA/IVCZAcaQIcP0VfH7/AsxMWVrdWVQfi0Pe+5tx/l0uvIXCw5/hHtfRNcwN1i9uhYerCHdPJ6CyvP9+nefWrq9RqjaDU8izsDOYmzfCiRvZNgxesHRk+QO4r+hVoDyla2dRebIQdcwa7Ogb1KI/ar4Mc3e9gud3r4Y/a1/VmX34cpvuAEfXVJ7MQ73IDCJ1IRRJPXRaTW0wvlObWFisfQuZ/G4Zlh3agODXbTXxfiHha1xUcgPlq7AkNgiu3PkigjA3fg0mPbhGAzKE0TLw4shoyXkbl1PL8IPDQvi8EQvHOZNhcr8MLbU64b4aZjNfg8frm+HuJEJt+s6uJ4f3lbI8ZJ1kYiRyx6wN+hO3x0zlRrYNw1zI/Lwx0YFl+L6g+2kzaTko5qa1uE+DTEd49UfNXWBn2Yjqi+k49p/v4sQ713reb/iFdlK4klmRVQ8dbuYZMRHTO7WJhSf71gfcM6qR9/LHyFBUAw4zMIudb9Zcdq0vH8Txf9bQgAxhtAzu7zna/QqOyxfCzkakUemWB/fRzD0tbb/nyDZba4twNXknbpX2fvoOQRBEXzGOXwIf4Qbx5Nmw8rAH52VzcNaj8vIXuFdey6cQBEEMHMYhjgRBEEbGoPQ5EgRBGDskjgRBEAKQOBIEQQhA4kgQBCEAiSNBEIQAJI4EQRACkDgSBEEIQOJIEAQhAIkjQRCEACSOBEEQApA4EgRBCEDiSBAEIQCJI0EQhAAkjgRBEAKQOBIEQQhA4jiYiJch5h8pSPn7RgTySQRBGAdG8WO3T207gg3+BitcdUPxZ08i/CM+MpRxlCN2Ryic72dgx2+j8bBFBwmCGDiMQhwf/8N2/OHxni+AX/bFS9h+iI8QQwrvF7ch4t9MkbE8Egl8Wl95tLK8IY+OQJBpBpavf9SaED9FaJkEYkAJ3Lwf62dVIzkk4pHF8dHKCkTU3vXwrUlGyCskjkRnjKLPUTzBC4/7Pi4QvDCh5942QRBEv2HkfY4qZEYvwqbjfLQvrIlFyhJbZH/wAaqC1yLETQrUZWPHiihtH59HKDa+shR+DlKITFhcrUR55kHEvp0MBbe/DZtAhP+/MMx3t4WYy9eiQvnZJBwVhSF8FpC9czmiTnIZ5YhNCYVt5g4s32rQi9hWl/a8QtZL2/Gx+OBmCNYGO0Nqouo4RuyP8C1yvXpUF55Ewp/jkdG+fnVHHaLyAxGxzFe7dnaLEorPWVpiLiY8F6WTztqS/Slitxq0uZfnCj/lgT///hk4S0WaPaobGUjaFI0U7l9qfhT2v+aLTne5lG9727nc2Lm0h0NVzY6Xs+O10Q66KWv5GQ/sWemJpksJWL0xmf0H8czfiKTX/CEpSET83efwyqzO/29XD4UgYhcfIX72mEgkkih+GxYWFmhoaOBjA0eLmQVQfRWFigKDcBkXz11A8aOszjpjIVZ4SGDi9ATGFH6M/1gXjd2fp+Eat8+DPdjbV2DayAe4cuYEMi9fQeVwV3g/PgvzpzcjJTUPai6fOAhR//MnBE4wg6rgG5w49x2uVJvA1W8hnhj/GExMWlB59jOkaQqdjoUrPCGpyMBnpzQJHfB16cg7EYHP+cO+oQB7v7igydJ+vGginhirwMfr1iE6gc/P1SN+PavHY6jOSsM3FxS41jAGk6dNR+Bce1w5nIFK3TJa7ODvNxpVGWnIvtqAUeMnYqLPE3AaOQVLfuUJ1blUnLl8DQ1SV0xy94X3+Cs4nKEtoS/nCnpmCh5kfcXKZNdx2HhMcnKBr58lvknJRt0PprBovYW7I5wgs6pD7pETyL5yBVcuXUB2oT3Wx29GEDvXjTNcna7gWq057FwtcPvTL9B2Zdrppqyzn38Nid8zmDZZhjElh5FRwR3giYiNckwZocAnEe/jwmPs/+3WXZhPkGFUXS5STmTjCjv+u5xsFHyvOQNB/Az6HDXWmjPUBQewcn1ihyUBGeQfxiLUoQopG9YivoBPZvZI0J93I2JGPdI2y7GDPZkhW/cj/HFTZllsZJaFjm2lEddQOIt0LLt+shyd1QocWBmJxI4K831szEr9YDWijnfs8PxDHKIX2aF4TygiP+VS+DJQjdT1bLutbe0Wl1q/LeJViNmzDJ530rBJvgO5LKn351KyvOE6eZkgfRyDIPvq9uvIIdhPOIdZdW/4wzQnFsu3pPKJDBsppDVKVrIwXfY58vdFdiMZEdx1XROL2CUyVueVrM5t9aM+R6J7jKLPccJCOV55JaLH4dfsoe0tVUWf6wgjwzEU/k4iqBWpOsLIoULqaQX7a4sJvlw8CL4uzAWryUKirjByFCQg5ZJeqf1HZQk+1ys6FAumsXpUnkGCjlhxKPbkogoiTHAzmC1ZloUE3badzEUx5xg05OOkbltUn6OEMwOtbeGuSejLuc4gRi+vAulF1exTAslobUqXlN9BPfsQO/sjRHfSQjfC2C3svsT9qxxwCkL4c6sQEezM0vYhql0YCeLhGIU4us35JZYs7Xl4SiNavUHFvHaDB8PZmj22gGiaHCkpKfphnbY/y9aOEwAZrC0BdYUC2dxxBjQ18xv9jOr2VX0xhzVGmrMP+yDEGdZ3fwirJROXsS6anG2oqgoMylBCzfUTsD/6oqOCupV9iMwwUhPvj3MBubVcihjWE7XxLilLQnJ6NdRSX4T/PQVJH0VBvkDWuU+xFyj+EouTlWJ4v8gsYibU+7Yc6FQ/gugOoxDHc395A5GRr/U47DjAH9gbuhAxZT574I8Ih6PnSvhcTATVA/xoNTfxG/qoyzIE66oJX3EOcf8xcOdi1nqMHCvDY5FygVl8Dr4IXReHPe/JmbD1lXqoVJoeY2Ypq/Ao3dbEzxOjEEfV9TxcyL7Q41B8iz/wUait17hykuZqxP8lXjAkHmcPKu6hkT1j4nEeGovJEKm5Kb+lj9ha37LiCLSz5bf6grYeIlE9jgrUVRMOCdm2fWEgz9WB6kYq4jevRdiKTUi8pILILRRr1/TNfvRcE4kQN2ZBHs9AtaUv5K8HPZIlSvz8MApx5L4hEx//cbdhwxI+c39xIQ0lNUwAPIMQ7sGnCXIUBTfYh30Ac/X0Hy/xtAiETOPnnbRzB/e4fj17Z4TqZheHYsGUR3k8j+JyCVMsgXr0Pz/2uaSwncNvcoilkOqeRpWLAye5fl+2y8pVm9YlBmVxeMg1U6BQlILYDz7A/hwVxDPkiBRqi5Ut/PlNgtDFKMTResIUuLq7dhscHfjM/UY2PtiTDaVIhpD/3o+4zREI/0M4CxGIeicOSe0/BqFCwp40VDO7w/c/drfni9gch91bA9BUaehuJ+P4RSV7qr0h3xWL9VyZ66IQt1sOu7vcAEVfUSHx/1JwVc3qsW4Pkt5Zz9c3HOu3xiFhfyzkfM5H58c7V1YVdw2k8Fu5kZUXgZhNrKSZ6xC7N0nnHqxH7Itcv281co9w7rsM8veSkXIoCRvna4rRIFgWc8TDXwmBM8rx5V8S2F/msr/zKXJVrC0vRiKoXR+zUM5NzJD6IWwTd49isPFF7R6C4DAKcTyxaRGenv9kt+HH+KEJ1fEoRMSkQHGbPX6zghCyKAQhwfPhPQ4oOZHGHh+ezB2I2KafL2gKc9kSo7Cf87wNSNsWjYRM9liKnRHIlfmkC9RfRyMi6xH7LQsSsGFLIjLK6iFxD9TWl4UAF1PcyUhFBp+tX/iRzqXaFYcD+UqIHPxZeUGYMOIecDUfJbdNYefbdg8CYFvHrMdtER3TkAQQKsvzlfUIcRSh+uvYjlkIqmTE/+sq1HruNXvpfXQACqUIstncPZoAMY3YEDrQd6sfkfb5gO1zFwmC+ClgFJYjQRCEsUHiSBAEIQCJI0EQhAAkjgRBEALQgAxBEIQAZDkSBEEIQOJIEAQhAIkjQRCEACSOBEEQApA4EgRBCEDiSBAEIQCJI0EQhAAkjgRBEAKQOBIEQQhA4kgQBCEAiSNBEIQAJI4EQRACkDgSBEEIQOJIEAQhAIkjQRCEACSOBEEQApA4EgRBCEDiSBAEIQCJI0EQhAAkjgRBEAKQOBIEQQhA4kgQBCEAiSNBEEQngP8PS1uXHyEHuF4AAAAASUVORK5CYII=;" vertex="1" parent="1">
          <mxGeometry x="180" y="280" width="214.21" height="490" as="geometry" />
        </mxCell>
        <mxCell id="4nV9bqFxuvPaOm7GeDRl-10" value="Store deployment packages (Databricks notebooks, configuration files, JARs, or Python wheels)." style="text;html=1;align=center;verticalAlign=middle;whiteSpace=wrap;rounded=0;" vertex="1" parent="1">
          <mxGeometry x="410" y="270" width="180" height="50" as="geometry" />
        </mxCell>
      </root>
    </mxGraphModel>
  </diagram>
</mxfile>
